<?xml version="1.0" encoding="UTF-8" standalone="no"?>
<!-- Created with Inkscape (http://www.inkscape.org/) -->

<svg
   width="82.015862mm"
   height="90.806595mm"
   viewBox="0 0 82.015862 90.806595"
   version="1.1"
   id="svg87744"
   inkscape:version="1.1 (c68e22c387, 2021-05-23)"
   sodipodi:docname="Logo_with_legend.svg"
   xmlns:inkscape="http://www.inkscape.org/namespaces/inkscape"
   xmlns:sodipodi="http://sodipodi.sourceforge.net/DTD/sodipodi-0.dtd"
   xmlns:xlink="http://www.w3.org/1999/xlink"
   xmlns="http://www.w3.org/2000/svg"
   xmlns:svg="http://www.w3.org/2000/svg">
  <sodipodi:namedview
     id="namedview87746"
     pagecolor="#c0c0c0"
     bordercolor="#666666"
     borderopacity="1.0"
     inkscape:pageshadow="2"
     inkscape:pageopacity="0"
     inkscape:pagecheckerboard="0"
     inkscape:document-units="mm"
     showgrid="false"
     fit-margin-top="0"
     fit-margin-left="0"
     fit-margin-right="0"
     fit-margin-bottom="0"
     showborder="true"
     inkscape:showpageshadow="false"
     inkscape:zoom="2"
     inkscape:cx="20.25"
     inkscape:cy="179.25"
     inkscape:window-width="2560"
     inkscape:window-height="1017"
     inkscape:window-x="-8"
     inkscape:window-y="-8"
     inkscape:window-maximized="1"
     inkscape:current-layer="layer1" />
  <defs
     id="defs87741">
    <linearGradient
       inkscape:collect="always"
       id="linearGradient90920">
      <stop
         style="stop-color:#ff0a0a;stop-opacity:1"
         offset="0"
         id="stop90916" />
      <stop
         style="stop-color:#bd13ab;stop-opacity:1"
         offset="1"
         id="stop90918" />
    </linearGradient>
    <linearGradient
       inkscape:collect="always"
       xlink:href="#linearGradient90920"
       id="linearGradient90924"
       x1="488.22049"
       y1="405.62445"
       x2="662.09998"
       y2="223"
       gradientUnits="userSpaceOnUse"
       spreadMethod="pad" />
  </defs>
  <g
     inkscape:label="Layer 1"
     inkscape:groupmode="layer"
     id="layer1"
     transform="translate(-21.31078,-54.385549)"
     style="display:inline">
    <g
       id="g5408"
       transform="matrix(0.26529239,0,0,0.26529239,-93.707666,11.620416)"
       style="mix-blend-mode:normal;fill:url(#linearGradient90924);fill-opacity:1;fill-rule:evenodd;stroke:#000000;stroke-opacity:1;opacity:1;stroke-width:0.04986636;stroke-miterlimit:4;stroke-dasharray:none;paint-order:normal;stroke-linejoin:round;stroke-linecap:butt">
      <g
         id="g5214"
         style="fill:url(#linearGradient90924);fill-opacity:1;fill-rule:evenodd;stroke:#000000;stroke-opacity:1;stroke-width:0.04986636;stroke-miterlimit:4;stroke-dasharray:none;paint-order:normal;stroke-linejoin:round;stroke-linecap:butt">
        <g
           id="g5212"
           style="fill:url(#linearGradient90924);fill-opacity:1;fill-rule:evenodd;stroke:#000000;stroke-opacity:1;stroke-width:0.04986636;stroke-miterlimit:4;stroke-dasharray:none;paint-order:normal;stroke-linejoin:round;stroke-linecap:butt">
          <g
             id="g5210"
             style="fill:url(#linearGradient90924);fill-opacity:1;fill-rule:evenodd;stroke:#000000;stroke-opacity:1;stroke-width:0.04986636;stroke-miterlimit:4;stroke-dasharray:none;paint-order:normal;stroke-linejoin:round;stroke-linecap:butt">
            <path
               fill="#646364"
               d="m 548.5,271.2 c 0,0.1 0,0.2 -0.1,0.4 -0.3,0.8 -1.1,1.9 -2.1,2.1 -0.5,0.1 -1.1,0.1 -1.7,-0.1 -0.6,-0.2 -1.3,-0.6 -2,-1.2 -0.1,0 -0.3,-0.3 -0.3,-0.4 -0.2,-1.7 -0.6,-3.6 -0.1,-6.2 0,-0.3 0.2,-0.7 0.3,-1 l 0.2,-0.6 c 0.1,-0.2 0.1,-0.4 0.3,-0.6 0.6,-0.7 0.8,-1 1.3,-1.5 0.8,-0.8 1.6,-1.5 2.5,-2.1 3.2,-2.1 6.9,-3 10.5,-3.1 h 0.7 0.3 c 0.1,0 0.2,0 0.4,0 0.7,0.1 1.5,0.1 2.2,0.3 l 2.2,0.4 1.1,0.2 0.3,0.1 c 0,0.1 0,0.2 0,0.3 v 0.6 l -0.1,1.2 c 0,0.4 0,0.7 0,1 0,0.6 0,1.5 0.1,1.5 0.1,0.4 0.3,0.9 0.6,1.5 0.4,0.8 1.1,1.7 1.8,2.6 0.6,0.8 1.2,1.6 1.8,2.6 l 0.4,0.7 c 0.1,0.3 0.3,0.6 0.4,0.9 0.3,0.5 0.5,1.2 0.7,1.9 0,0 0.1,0.2 0.1,0.6 0,0.4 0.1,1 0,1.8 0,0.4 -0.1,0.8 -0.2,1.2 -0.1,0.4 -0.3,0.9 -0.5,1.3 -0.1,0.2 -0.2,0.5 -0.3,0.7 -0.1,0.2 -0.3,0.4 -0.4,0.6 -0.1,0.2 -0.3,0.4 -0.4,0.6 l -0.2,0.3 v 0 c 0,0.1 0.3,-0.5 0.2,-0.3 v 0 0 0 l -0.1,0.1 -0.1,0.2 c -0.4,0.5 -0.7,1 -1.2,1.4 -0.5,0.5 -1,0.8 -1.5,1.1 -1.1,0.6 -2.2,0.9 -3.3,1 -2.2,0.2 -4.3,-0.1 -6,-0.7 -3,-1 -4.5,-2.3 -5.2,-3.3 -0.7,-1 -0.6,-1.4 -0.2,-1.4 0.2,0 0.5,0.1 0.9,0.2 0.4,0.1 0.8,0.3 1.4,0.4 1.1,0.3 2.5,0.6 4,0.7 -0.2,-0.1 1.1,0.1 2.8,-0.1 0.8,-0.1 1.8,-0.4 2.5,-0.8 0.8,-0.4 1.2,-0.9 1.3,-1.4 l 0.2,-0.3 c 0.6,-1.1 0.6,-1.8 0.5,-2.3 0,-0.1 -0.1,-0.2 -0.1,-0.3 0,-0.1 -0.1,-0.2 -0.1,-0.3 -0.1,-0.2 -0.1,-0.2 -0.1,-0.2 -0.3,-0.9 -1.2,-2.1 -2.2,-3.4 -0.7,-1 -1.5,-2 -2.2,-3.3 -0.5,-0.8 -0.9,-1.8 -1.2,-2.8 -0.2,-0.7 -0.2,-0.7 -0.2,-0.8 V 263 h -0.9 c -2.6,0 -5.2,0.7 -7.1,2 -0.6,0.3 -1,0.8 -1.5,1.2 -0.2,0.2 -0.5,0.6 -0.4,0.5 0,0 0,0 0,0 0,0.1 -0.1,0.1 -0.1,0.2 -0.3,1 -0.1,2.5 0.1,4.3 z"
               id="path5208"
               style="fill:url(#linearGradient90924);fill-opacity:1;fill-rule:evenodd;stroke:#000000;stroke-opacity:1;stroke-width:0.04986636;stroke-miterlimit:4;stroke-dasharray:none;paint-order:normal;stroke-linejoin:round;stroke-linecap:butt" />
          </g>
        </g>
      </g>
      <g
         id="g5222"
         style="fill:url(#linearGradient90924);fill-opacity:1;fill-rule:evenodd;stroke:#000000;stroke-opacity:1;stroke-width:0.04986636;stroke-miterlimit:4;stroke-dasharray:none;paint-order:normal;stroke-linejoin:round;stroke-linecap:butt">
        <g
           id="g5220"
           style="fill:url(#linearGradient90924);fill-opacity:1;fill-rule:evenodd;stroke:#000000;stroke-opacity:1;stroke-width:0.04986636;stroke-miterlimit:4;stroke-dasharray:none;paint-order:normal;stroke-linejoin:round;stroke-linecap:butt">
          <g
             id="g5218"
             style="fill:url(#linearGradient90924);fill-opacity:1;fill-rule:evenodd;stroke:#000000;stroke-opacity:1;stroke-width:0.04986636;stroke-miterlimit:4;stroke-dasharray:none;paint-order:normal;stroke-linejoin:round;stroke-linecap:butt">
            <path
               fill="#646364"
               d="m 547.4,268 c 0.1,0 0.2,0 0.4,0 0.7,0.2 1.7,0.6 2.3,1.4 0.7,0.8 1.1,2 -0.2,4 0,0.1 -0.3,0.4 -0.4,0.4 -1.9,0.7 -3.7,1 -4.8,1.4 -0.6,0.2 -0.9,0.4 -1.2,0.7 -0.3,0.3 -0.7,0.7 -0.9,1.2 0,0 0,0 0,0.2 l -0.1,0.6 c 0,0.4 -0.1,0.8 -0.1,1.3 0,0.9 0.1,1.8 0.2,2.8 0.1,0.9 0.5,1.9 0.8,2.7 l 0.3,0.6 c 0,0 0,0.1 0,0.1 l 0.1,0.2 c 0.3,0.4 0.6,0.9 0.9,1.2 1.2,1.6 2.5,2.7 3.8,3.1 1.2,0.4 3,0.1 5.1,-0.4 0.5,-0.1 1,-0.3 1.5,-0.5 l 0.8,-0.2 c 0.1,0 0.3,-0.1 0.4,-0.1 h 0.4 l 1.3,0.1 c 1.4,0.1 2.8,0.4 3.9,0.7 1.1,0.3 1.8,0.4 2.8,0.4 0.9,0 1.8,0 2.6,-0.2 1.6,-0.4 2.8,-1.2 4,-2.7 0.6,-0.7 1.2,-1.6 1.8,-2.5 0.3,-0.5 0.6,-0.9 0.8,-1.3 0.3,-0.4 0.5,-0.9 0.7,-1.3 0.8,-1.5 1.4,-3.1 1.8,-4.7 0,0 0.2,-0.5 0.4,-1.3 0.1,-0.4 0.3,-0.9 0.3,-1.4 0,-0.5 0.2,-1.1 0.1,-1.7 0,-0.3 0,-0.7 0,-0.9 0,-0.2 -0.1,-0.4 -0.1,-0.6 -0.2,-0.4 -0.4,-0.9 -1,-1.4 -1.1,-0.9 -2.7,-1.8 -4.1,-2.6 -2.6,-1.3 -4.2,-2.5 -4.9,-3.4 -0.7,-0.9 -0.7,-1.3 -0.3,-1.4 0.4,-0.1 1.2,0.2 2.4,0.5 1.1,0.3 2.6,0.7 4.3,1.1 -0.2,-0.1 0.7,0.1 2.3,0.7 0.8,0.3 1.7,0.6 2.8,1.2 1.1,0.6 2.3,1.6 3.1,3 0.2,0.3 0.4,0.7 0.5,1.1 0.1,0.2 0.2,0.4 0.2,0.6 l 0.1,0.5 c 0.1,0.6 0.3,1.3 0.4,1.9 0.1,1.2 0.1,2.4 0,3.3 0,0.5 -0.1,0.9 -0.1,1.3 -0.1,0.4 -0.1,0.7 -0.2,1 -0.1,0.5 -0.2,0.8 -0.2,0.8 -0.2,0.9 -0.6,1.8 -0.9,2.6 -0.4,0.8 -0.7,1.7 -1.1,2.5 -0.3,0.6 -0.6,1.1 -0.9,1.7 -0.3,0.5 -0.7,1.1 -1,1.6 -0.7,1 -1.4,2 -2.2,3 -0.9,1 -1.9,2.1 -3.2,2.9 -1.3,0.8 -2.7,1.5 -4.1,1.8 -1.5,0.4 -2.9,0.4 -4.3,0.4 -1.4,0 -2.9,-0.3 -4,-0.6 -1.2,-0.3 -2,-0.5 -2.9,-0.5 -0.7,0 -0.3,0 -0.5,0 -0.6,0.2 -1.2,0.4 -1.8,0.5 -1.2,0.3 -2.5,0.7 -3.9,0.8 -1.4,0.1 -3,0.1 -4.6,-0.4 -1.6,-0.4 -3,-1.3 -4.1,-2.2 -1.1,-0.9 -2.1,-1.9 -2.8,-3 -0.4,-0.5 -0.8,-1 -1.1,-1.5 l -0.3,-0.5 c -0.2,-0.2 -0.2,-0.5 -0.4,-0.7 -0.1,-0.3 -0.3,-0.7 -0.4,-1 -0.5,-1.3 -0.9,-2.5 -1.1,-3.9 -0.3,-1.3 -0.4,-2.7 -0.4,-4.1 0,-0.7 0.1,-1.4 0.2,-2.2 l 0.3,-1.1 0.2,-0.7 c 0,-0.2 0.2,-0.5 0.4,-0.7 0.5,-1 1.3,-2 2.2,-2.9 0.9,-0.9 2.1,-1.5 3.1,-1.9 1.7,-0.6 3.2,-0.9 4.6,-1.4 z"
               id="path5216"
               style="fill:url(#linearGradient90924);fill-opacity:1;fill-rule:evenodd;stroke:#000000;stroke-opacity:1;stroke-width:0.04986636;stroke-miterlimit:4;stroke-dasharray:none;paint-order:normal;stroke-linejoin:round;stroke-linecap:butt" />
          </g>
        </g>
      </g>
      <g
         id="g5230"
         style="fill:url(#linearGradient90924);fill-opacity:1;fill-rule:evenodd;stroke:#000000;stroke-opacity:1;stroke-width:0.04986636;stroke-miterlimit:4;stroke-dasharray:none;paint-order:normal;stroke-linejoin:round;stroke-linecap:butt">
        <g
           id="g5228"
           style="fill:url(#linearGradient90924);fill-opacity:1;fill-rule:evenodd;stroke:#000000;stroke-opacity:1;stroke-width:0.04986636;stroke-miterlimit:4;stroke-dasharray:none;paint-order:normal;stroke-linejoin:round;stroke-linecap:butt">
          <g
             id="g5226"
             style="fill:url(#linearGradient90924);fill-opacity:1;fill-rule:evenodd;stroke:#000000;stroke-opacity:1;stroke-width:0.04986636;stroke-miterlimit:4;stroke-dasharray:none;paint-order:normal;stroke-linejoin:round;stroke-linecap:butt">
            <path
               fill="#646364"
               d="m 557.6,254.4 c 0,0.1 -0.1,0.2 -0.3,0.3 -0.6,0.5 -1.6,1.1 -2.6,1.1 -1,0 -2.2,-0.6 -3,-2.6 0,-0.1 -0.1,-0.4 -0.1,-0.6 1,-3.4 2.2,-6.8 3.8,-10.1 1,-2.2 2.2,-4.3 4,-6.4 0.9,-1 2,-2.1 3.6,-2.9 0.4,-0.2 0.9,-0.4 1.3,-0.5 0.5,-0.1 1.1,-0.2 1.6,-0.2 1.1,0 2.2,0.2 3.2,0.7 0.5,0.2 0.9,0.5 1.4,0.8 0.4,0.3 0.7,0.8 1,1.2 0.5,0.9 0.7,2 0.7,3.1 v 0.9 c 0,0.1 0,0.2 0,0.2 v 0 c 0,0 0,0 0,0 -0.1,0 -0.2,0 -0.3,0.1 -0.4,0.1 -0.6,0.1 -0.8,0.3 -0.1,0 -0.1,0 -0.2,0.1 -0.1,0 -0.1,0.1 -0.1,0.1 0,0 0,0 0,0 v 0 c -1.5,-0.2 2.1,0.3 1.7,0.2 v 0 0 0 0 l 0.1,0.2 c 0.2,0.4 0.4,0.7 1.1,1.1 0.6,0.4 1.6,0.8 2.7,1.3 v 0 c 0.4,0.2 0.8,0.4 1.3,0.6 0.5,0.2 1,0.5 1.5,0.8 l 0.5,0.3 c 0.2,0.1 0.4,0.2 0.6,0.4 l 0.7,0.8 c 0.8,0.8 1.4,1.8 2.1,2.8 0,0 0.3,0.7 0.8,1.8 0.2,0.6 0.4,1.3 0.6,2.1 0.1,0.8 0.3,1.7 0.3,2.7 0,1 -0.1,2 -0.2,3 -0.2,1 -0.5,2 -0.9,3 -0.8,1.9 -1.9,3.7 -3.1,5 -2,2.3 -3.8,3.3 -4.8,3.7 -1.1,0.4 -1.5,0.3 -1.4,-0.2 0.1,-0.8 2.1,-2.8 3.5,-5.6 -0.1,0.1 0,-0.1 0.2,-0.4 0.1,-0.2 0.2,-0.4 0.3,-0.6 0.1,-0.2 0.2,-0.5 0.3,-0.8 0.5,-1.2 0.9,-3 0.9,-4.8 0,-1.8 -0.4,-3.4 -1,-4.5 -0.3,-0.6 -0.6,-1 -0.7,-1.3 -0.2,-0.3 -0.4,-0.5 -0.4,-0.5 -0.2,-0.3 -0.3,-0.5 -0.5,-0.8 l -0.6,-0.7 c 0,0 -0.1,-0.1 -0.1,-0.1 v 0 c 0,0 0,0 -0.1,0 l -0.2,-0.1 c -0.3,-0.2 -0.6,-0.3 -0.9,-0.5 -0.3,-0.2 -0.7,-0.3 -1,-0.5 v 0 c -1,-0.4 -2.1,-0.9 -3.4,-1.6 -1.3,-0.7 -2.8,-2.2 -3.5,-3.8 l -0.2,-0.6 -0.1,-0.2 v -0.1 0 0 c -0.2,-0.3 1.4,2.3 0.7,1.2 v 0 c -0.1,-0.1 -0.3,-0.3 -0.4,-0.5 -0.5,-0.6 -0.8,-1.4 -0.9,-1.9 -0.1,-0.6 -0.2,-1 -0.2,-1.4 v -0.8 0 0 c -0.1,0 -0.1,0 -0.2,0.1 -0.4,0.2 -1,0.7 -1.6,1.4 -1.1,1.3 -2.2,3.1 -3.1,5 -1.5,2.9 -2.6,6.1 -3.6,9.2 z"
               id="path5224"
               style="fill:url(#linearGradient90924);fill-opacity:1;fill-rule:evenodd;stroke:#000000;stroke-opacity:1;stroke-width:0.04986636;stroke-miterlimit:4;stroke-dasharray:none;paint-order:normal;stroke-linejoin:round;stroke-linecap:butt" />
          </g>
        </g>
      </g>
      <g
         id="g5238"
         style="fill:url(#linearGradient90924);fill-opacity:1;fill-rule:evenodd;stroke:#000000;stroke-opacity:1;stroke-width:0.04986636;stroke-miterlimit:4;stroke-dasharray:none;paint-order:normal;stroke-linejoin:round;stroke-linecap:butt">
        <g
           id="g5236"
           style="fill:url(#linearGradient90924);fill-opacity:1;fill-rule:evenodd;stroke:#000000;stroke-opacity:1;stroke-width:0.04986636;stroke-miterlimit:4;stroke-dasharray:none;paint-order:normal;stroke-linejoin:round;stroke-linecap:butt">
          <g
             id="g5234"
             style="fill:url(#linearGradient90924);fill-opacity:1;fill-rule:evenodd;stroke:#000000;stroke-opacity:1;stroke-width:0.04986636;stroke-miterlimit:4;stroke-dasharray:none;paint-order:normal;stroke-linejoin:round;stroke-linecap:butt">
            <path
               fill="#646364"
               d="m 568.2,231.3 c 0,0.1 0,0.1 -0.2,0.2 -0.3,0.2 -0.6,0.4 -1,0.7 -0.4,0.2 -0.9,0.5 -1.4,0.6 -0.5,0.1 -1.1,0.1 -1.7,-0.2 -0.6,-0.3 -1.3,-0.9 -1.7,-2 0,-0.1 -0.1,-0.5 -0.1,-0.7 0.5,-2.2 1.7,-4.4 3.3,-6 1.6,-1.6 3.5,-2.7 5.5,-3.5 3.7,-1.3 7.6,-1.4 11.5,0 1.9,0.7 3.7,1.9 5.1,3.6 1.4,1.7 2.2,3.8 2.5,5.8 0.3,2 0.1,4 -0.3,5.8 -0.2,0.9 -0.4,1.8 -0.8,2.6 l -0.5,1.2 -0.1,0.3 -0.1,0.2 v 0 0 0.1 l -0.1,0.4 c -0.4,0.9 -0.5,1.9 -0.3,3.1 0.2,1.2 0.6,2.5 1.1,3.9 v 0 c 0.7,1.8 1.5,3.6 2.2,5.7 0.7,2.1 1.3,4.4 1.2,6.9 l -0.1,1.8 -0.2,1.4 -0.4,2.9 c 0,0 -0.1,0.6 -0.4,1.6 -0.2,1 -0.6,2.4 -1.1,4 -0.5,1.6 -1.2,3.4 -2.2,5.2 -1,1.8 -2.2,3.5 -3.7,4.7 -1.3,1 -2.6,1.6 -3.6,1.8 -1.1,0.2 -1.9,0.2 -2.4,0.1 -1.1,-0.2 -1.4,-0.6 -1.1,-0.9 0.3,-0.3 1.1,-0.6 2,-1.1 0.9,-0.5 2,-1.3 2.8,-2.4 -0.1,0.1 0.4,-0.5 1,-1.6 0.6,-1.1 1.2,-2.9 1.6,-4.9 0.4,-1.9 0.7,-4 0.8,-5.5 0.1,-1.6 0.2,-2.6 0.2,-2.6 l 0.3,-2.4 c 0,-0.4 0.1,-0.9 0.2,-1.2 l 0.1,-0.9 c 0,-1.5 -0.3,-3.1 -0.9,-4.8 -0.6,-1.7 -1.4,-3.5 -2.1,-5.5 v 0 c -0.6,-1.6 -1.2,-3.3 -1.5,-5.2 -0.3,-1.9 -0.1,-4.2 0.6,-6.2 l 0.3,-0.7 0.1,-0.2 v -0.1 0 0 c 0,0 -0.2,0.4 -0.1,0.2 v 0 l 0.1,-0.2 0.4,-1 c 0.3,-0.6 0.4,-1.3 0.6,-1.9 0.3,-1.3 0.4,-2.5 0.2,-3.6 -0.3,-2.2 -1.6,-3.7 -3.7,-4.5 -2.1,-0.8 -4.8,-0.8 -7.1,0 -1.2,0.4 -2.3,1.1 -3.2,2 -0.8,0.9 -1.4,1.9 -1.6,3 z"
               id="path5232"
               style="fill:url(#linearGradient90924);fill-opacity:1;fill-rule:evenodd;stroke:#000000;stroke-opacity:1;stroke-width:0.04986636;stroke-miterlimit:4;stroke-dasharray:none;paint-order:normal;stroke-linejoin:round;stroke-linecap:butt" />
          </g>
        </g>
      </g>
      <g
         id="g5246"
         style="fill:url(#linearGradient90924);fill-opacity:1;fill-rule:evenodd;stroke:#000000;stroke-opacity:1;stroke-width:0.04986636;stroke-miterlimit:4;stroke-dasharray:none;paint-order:normal;stroke-linejoin:round;stroke-linecap:butt">
        <g
           id="g5244"
           style="fill:url(#linearGradient90924);fill-opacity:1;fill-rule:evenodd;stroke:#000000;stroke-opacity:1;stroke-width:0.04986636;stroke-miterlimit:4;stroke-dasharray:none;paint-order:normal;stroke-linejoin:round;stroke-linecap:butt">
          <g
             id="g5242"
             style="fill:url(#linearGradient90924);fill-opacity:1;fill-rule:evenodd;stroke:#000000;stroke-opacity:1;stroke-width:0.04986636;stroke-miterlimit:4;stroke-dasharray:none;paint-order:normal;stroke-linejoin:round;stroke-linecap:butt">
            <path
               fill="#646364"
               d="m 538.5,264.6 c 0.2,0 0.2,0 0.4,0.1 0.7,0.4 1.6,1.2 1.8,2.2 0.3,1 -0.1,2.2 -1.6,3.6 -0.1,0 -0.3,0.2 -0.5,0.3 -3.4,0.1 -6.9,0.3 -10.7,-0.1 -2.5,-0.3 -5.2,-0.8 -7.8,-2.1 -2.6,-1.3 -4.8,-3.6 -6.1,-6.2 l -0.8,-2 c -0.3,-0.7 -0.4,-1.3 -0.6,-2 -0.2,-0.7 -0.3,-1.3 -0.4,-2 -0.1,-0.7 -0.1,-1.4 -0.1,-2.1 0,-0.7 0.1,-1.4 0.1,-2.1 0.1,-0.7 0.2,-1.5 0.5,-2.3 0.5,-1.5 1.4,-3 2.7,-4.2 1.2,-1.1 2.6,-1.9 4,-2.4 1.3,-0.5 2.6,-0.8 3.9,-1 2.5,-0.4 4.8,-0.6 7.1,-0.9 2.2,-0.2 4.3,-0.6 6,-1.2 0.8,-0.3 1.5,-0.7 2,-1.2 l 0.2,-0.2 0.2,-0.3 c 0.2,-0.2 0.3,-0.4 0.5,-0.6 0.3,-0.4 0.7,-0.8 1,-1.2 l 3.6,-4.5 c 0,0 0.4,-0.4 1.1,-1.2 0.7,-0.7 1.8,-1.7 3,-2.9 1.3,-1.1 2.8,-2.3 4.5,-3.3 1.7,-1 3.7,-1.9 5.8,-2 1.7,-0.2 3.1,0.3 4.1,0.8 0.5,0.3 0.8,0.6 1.2,0.8 0.3,0.3 0.5,0.6 0.7,0.8 0.6,1 0.6,1.4 0.1,1.4 -0.4,0 -1.2,-0.4 -2.2,-0.6 -1,-0.3 -2.2,-0.3 -3.4,0.2 0.1,0 -0.5,0.2 -1.6,0.8 -1.1,0.6 -2.5,1.8 -3.9,3.3 -1.4,1.4 -2.6,3 -3.6,4.3 -0.9,1.3 -1.6,2.1 -1.6,2.1 l -3.1,3.8 c -0.4,0.5 -0.8,0.9 -1.2,1.4 -0.2,0.2 -0.4,0.5 -0.7,0.7 l -0.4,0.4 -0.4,0.4 c -1.2,1.1 -2.6,1.8 -3.9,2.3 -2.6,1 -5.2,1.3 -7.5,1.6 -2.4,0.3 -4.6,0.4 -6.7,0.8 -2,0.3 -3.8,1 -4.7,1.8 -0.5,0.4 -0.8,0.9 -1,1.6 -0.1,0.3 -0.2,0.7 -0.3,1.1 0,0.4 -0.1,0.8 -0.1,1.3 0,0.5 0,0.9 0.1,1.4 0,0.5 0.1,0.9 0.3,1.4 0.1,0.4 0.2,0.9 0.4,1.3 0.2,0.4 0.3,0.8 0.5,1.2 0.8,1.5 1.9,2.7 3.5,3.5 1.5,0.8 3.5,1.2 5.5,1.4 3.3,0.8 6.7,0.6 10.1,0.5 z"
               id="path5240"
               style="fill:url(#linearGradient90924);fill-opacity:1;fill-rule:evenodd;stroke:#000000;stroke-opacity:1;stroke-width:0.04986636;stroke-miterlimit:4;stroke-dasharray:none;paint-order:normal;stroke-linejoin:round;stroke-linecap:butt" />
          </g>
        </g>
      </g>
      <g
         id="g5254"
         style="fill:url(#linearGradient90924);fill-opacity:1;fill-rule:evenodd;stroke:#000000;stroke-opacity:1;stroke-width:0.04986636;stroke-miterlimit:4;stroke-dasharray:none;paint-order:normal;stroke-linejoin:round;stroke-linecap:butt">
        <g
           id="g5252"
           style="fill:url(#linearGradient90924);fill-opacity:1;fill-rule:evenodd;stroke:#000000;stroke-opacity:1;stroke-width:0.04986636;stroke-miterlimit:4;stroke-dasharray:none;paint-order:normal;stroke-linejoin:round;stroke-linecap:butt">
          <g
             id="g5250"
             style="fill:url(#linearGradient90924);fill-opacity:1;fill-rule:evenodd;stroke:#000000;stroke-opacity:1;stroke-width:0.04986636;stroke-miterlimit:4;stroke-dasharray:none;paint-order:normal;stroke-linejoin:round;stroke-linecap:butt">
            <path
               fill="#646364"
               d="m 515.3,263.9 c 0.2,-0.1 0.2,-0.2 0.6,-0.2 0.5,-0.1 1.2,-0.1 1.7,0.1 0.6,0.2 1,0.5 1.3,0.9 0.3,0.4 0.4,1 0.4,1.6 0,0.3 0,0.7 0,1 0,0.4 -0.1,0.7 -0.1,1.2 0,0.1 0,0.3 -0.1,0.4 -0.8,0.6 -1.6,1.7 -2.1,2.9 -0.3,0.6 -0.5,1.2 -0.6,1.8 -0.1,0.3 -0.1,0.6 -0.1,0.9 0,0.1 0,0.3 0,0.4 v 0.3 c 0,0.2 0,0.3 0,0.5 v 0.2 c -0.1,1.3 0,2.3 0.7,3.6 0.6,1.3 1.7,2.6 2.8,4.4 1.1,1.7 2.2,3.9 2.5,6.3 0.1,0.6 0.1,1.2 0.1,1.8 l -0.1,1.6 c -0.1,1 -0.2,2.1 -0.4,3 -0.2,0.9 -0.4,1.9 -0.5,2.6 -0.1,0.4 -0.1,0.7 -0.1,1.1 0,0.3 0,0.6 0,0.8 0,0.5 0.2,0.7 0.4,1 0.1,0.2 0.2,0.3 0.5,0.5 l 0.3,0.3 0.4,0.3 0.4,0.3 0.5,0.2 c 0.4,0.2 0.6,0.3 1.1,0.5 0.8,0.3 1.6,0.6 2.4,0.9 0.4,0.1 0.8,0.3 1.2,0.4 l 1.2,0.3 c 0.8,0.2 1.6,0.3 2.4,0.5 1.7,0.2 3.3,0.3 5,0 0,0 0.1,0 0.4,0 0.2,0 0.6,0 1,-0.1 0.9,-0.1 2.1,-0.3 3.5,-0.6 2.8,-0.7 6.2,-2.3 9,-4 0.6,-0.4 1.1,-0.7 1.6,-1 0.5,-0.3 0.9,-0.6 1.3,-0.9 0.8,-0.5 1.4,-0.9 1.8,-1.2 0.9,-0.5 1.4,-0.5 1.4,-0.1 0,0.4 -0.4,1.3 -1,2.4 -0.4,0.5 -0.8,1.1 -1.3,1.8 -0.5,0.6 -1.1,1.3 -1.7,1.9 0.2,-0.1 -0.6,0.6 -1.8,1.7 -1.3,1 -3.1,2.4 -5.2,3.5 -2.1,1.1 -4.3,2 -6.1,2.4 -0.4,0.1 -0.8,0.2 -1.2,0.3 -0.4,0.1 -0.7,0.1 -1,0.2 -0.5,0.1 -0.8,0.1 -0.8,0.1 -0.9,0.1 -1.9,0.1 -2.8,0.1 -0.9,-0.1 -1.9,-0.1 -2.8,-0.2 -1,-0.2 -2.1,-0.3 -3,-0.6 l -1.5,-0.4 c -0.5,-0.1 -0.9,-0.3 -1.4,-0.5 -0.9,-0.3 -1.8,-0.7 -2.8,-1 -0.4,-0.1 -1,-0.4 -1.4,-0.7 l -0.7,-0.4 -0.7,-0.5 -0.7,-0.5 -0.7,-0.6 c -0.2,-0.2 -0.5,-0.4 -0.7,-0.7 -0.2,-0.3 -0.5,-0.5 -0.7,-0.8 -0.2,-0.3 -0.4,-0.6 -0.6,-0.9 -0.2,-0.3 -0.4,-0.7 -0.5,-1 -0.1,-0.3 -0.2,-0.7 -0.3,-1.1 -0.1,-0.4 -0.1,-0.7 -0.2,-1 -0.1,-0.4 -0.1,-0.7 -0.1,-1 V 300 c 0.1,-0.5 0.1,-1.2 0.2,-1.6 0.2,-1 0.3,-1.9 0.5,-2.8 0.2,-0.9 0.3,-1.7 0.3,-2.4 v -1.1 l -0.1,-1 c -0.2,-1.2 -0.7,-2.4 -1.6,-3.8 -0.8,-1.4 -2.1,-2.9 -3.1,-4.9 -1.1,-2 -1.6,-4.7 -1.3,-7.1 v -0.4 c 0,0 0,0.1 0,0.1 0,0.2 0,0.1 0,0 v -0.1 c 0,-0.3 0,-0.6 0,-0.9 0.1,-0.6 0.1,-1.1 0.3,-1.6 0.2,-1.1 0.6,-2.1 1,-3.1 0.6,-2.1 1.8,-3.9 3.7,-5.4 z"
               id="path5248"
               style="fill:url(#linearGradient90924);fill-opacity:1;fill-rule:evenodd;stroke:#000000;stroke-opacity:1;stroke-width:0.04986636;stroke-miterlimit:4;stroke-dasharray:none;paint-order:normal;stroke-linejoin:round;stroke-linecap:butt" />
          </g>
        </g>
      </g>
      <g
         id="g5262"
         style="fill:url(#linearGradient90924);fill-opacity:1;fill-rule:evenodd;stroke:#000000;stroke-opacity:1;stroke-width:0.04986636;stroke-miterlimit:4;stroke-dasharray:none;paint-order:normal;stroke-linejoin:round;stroke-linecap:butt">
        <g
           id="g5260"
           style="fill:url(#linearGradient90924);fill-opacity:1;fill-rule:evenodd;stroke:#000000;stroke-opacity:1;stroke-width:0.04986636;stroke-miterlimit:4;stroke-dasharray:none;paint-order:normal;stroke-linejoin:round;stroke-linecap:butt">
          <g
             id="g5258"
             style="fill:url(#linearGradient90924);fill-opacity:1;fill-rule:evenodd;stroke:#000000;stroke-opacity:1;stroke-width:0.04986636;stroke-miterlimit:4;stroke-dasharray:none;paint-order:normal;stroke-linejoin:round;stroke-linecap:butt">
            <path
               fill="#646364"
               d="m 556.8,333.8 c -0.1,0 -0.2,0.1 -0.2,0.1 -0.1,0.1 -0.3,0.1 -0.8,0.4 -0.2,0.1 -0.4,0.3 -0.7,0.5 -0.2,0.2 -0.5,0.4 -0.5,0.5 0,0.1 0,0 -0.2,0 -0.1,0 -0.1,0 -0.2,0 -0.1,0 -0.2,0 -0.3,0 -0.4,0.1 -0.8,0.2 -1.3,0.3 l -0.3,0.1 -0.2,0.1 c 0,0 0,0 0,0 h 0.1 c 0,0 0.1,-0.1 0.1,-0.1 0.1,-0.1 0.1,-0.2 0.2,-0.3 0.2,-0.4 0.5,-0.8 0.9,-1.2 0.4,-0.3 0.9,-0.6 1.6,-0.6 0.3,0 0.7,0 1.1,0.2 0.2,0.1 0.4,0.2 0.7,0.4 0.1,0.1 0.3,0.2 0.4,0.7 0,0 0,0.2 0.1,0.3 v 0.2 c 0,0.2 0,0.4 -0.1,0.6 0,0.1 -0.1,0.2 -0.1,0.3 -0.1,0.2 -0.3,0.6 -0.5,0.8 -0.5,0.5 -1.1,0.8 -1.8,0.8 -0.3,0 -0.7,0 -0.9,-0.1 -0.1,0 -0.2,-0.1 -0.3,-0.1 -0.1,0 -0.2,-0.1 -0.3,-0.1 -0.1,0 -0.2,-0.1 -0.2,-0.1 -0.1,-0.1 -0.3,-0.2 -0.4,-0.3 l -0.2,-0.2 -0.3,-0.2 c -0.2,-0.2 -0.6,-0.7 -0.8,-1 -0.2,-0.4 -0.3,-0.9 -0.3,-1.4 0,-0.1 0,-0.3 0,-0.4 v -0.1 0 c 0,0.2 0,0.1 0,0.1 v 0 0 0 -0.1 -0.3 c 0,-0.4 0,-0.9 -0.1,-1.2 0,-0.3 -0.1,-0.6 -0.1,-1 -0.1,-0.4 -0.1,-0.7 -0.2,-1.1 -0.2,-0.8 -0.4,-1.6 -0.6,-2.7 -0.1,-0.5 -0.2,-1 -0.2,-1.7 v -0.2 c 0,0 0,0.1 0,0.1 0,0 0,0 0,0 v -0.2 l -0.1,-0.6 c -0.3,-2 -0.7,-4.1 -0.8,-6.3 -0.1,-2.2 0,-4.6 0.8,-7 0.7,-2.4 2.2,-4.7 4,-6.3 0.4,-0.4 0.9,-0.8 1.4,-1.2 l 0.8,-0.6 c 0.3,-0.3 0.8,-0.4 1,-0.5 0.5,-0.2 1.1,-0.5 1.6,-0.7 0.6,-0.2 1.2,-0.4 1.7,-0.5 0.6,-0.1 1.2,-0.3 1.8,-0.3 0.6,-0.1 1.2,-0.1 1.7,-0.2 1.1,-0.1 2,-0.1 2.9,-0.2 0.4,-0.1 0.9,-0.1 1.3,-0.2 l 0.6,-0.1 c 0,0 0.8,-0.2 1.3,-0.2 0.8,0 1.5,-0.1 1.9,-0.3 0.4,-0.2 0.5,-0.2 0.7,-0.6 0.2,-0.4 0.5,-1.1 0.7,-2 l 0.7,-3 c 0.1,-0.2 0.1,-0.5 0.2,-0.7 l 0.3,-0.6 0.5,-0.8 0.5,-0.8 c 0.2,-0.2 0.4,-0.5 0.5,-0.7 1.4,-1.9 3.2,-3.4 5.1,-4.6 0,0 0.2,-0.1 0.4,-0.2 0.3,-0.1 0.7,-0.4 1.2,-0.6 0.5,-0.2 1.2,-0.5 1.9,-0.7 0.8,-0.2 1.6,-0.4 2.5,-0.6 1.8,-0.3 3.9,-0.3 5.9,0 2,0.4 4,1 5.6,2 0.7,0.3 1.3,0.8 1.8,1.2 0.3,0.2 0.5,0.4 0.7,0.6 0.2,0.2 0.4,0.4 0.6,0.6 0.3,0.4 0.7,0.7 0.9,1 0.2,0.3 0.4,0.6 0.5,0.9 0.5,1 0.4,1.4 0,1.4 -0.4,0 -1.2,-0.4 -2.2,-1 -1,-0.5 -2.3,-1.1 -3.8,-1.5 0.3,0.2 -3.3,-1.1 -6.9,-0.3 -1.8,0.4 -3.5,1 -4.7,1.7 -0.3,0.1 -0.6,0.3 -0.8,0.5 -0.2,0.2 -0.4,0.3 -0.6,0.4 -0.2,0.1 -0.3,0.2 -0.4,0.3 -0.1,0.1 -0.1,0.1 -0.1,0.1 -0.5,0.4 -1.1,0.8 -1.5,1.3 l -0.7,0.7 -0.6,0.8 c -0.1,0.2 -0.3,0.3 -0.4,0.5 l -0.3,0.5 -0.3,0.5 c 0,0 -0.1,0.1 -0.1,0.1 l -0.7,2.8 c -0.3,1.1 -0.6,2.3 -1.4,3.6 -0.4,0.7 -0.9,1.3 -1.6,1.9 -0.3,0.3 -0.7,0.6 -1,0.7 -0.4,0.2 -0.7,0.4 -1.1,0.5 -1.5,0.6 -2.8,0.7 -4,0.7 0.4,-0.1 -0.5,0.1 -1,0.2 -0.6,0.1 -1.1,0.2 -1.7,0.3 -1.1,0.1 -2.2,0.2 -3.1,0.3 -0.5,0 -0.9,0.1 -1.3,0.1 -0.4,0.1 -0.8,0.2 -1.2,0.2 -0.4,0.1 -0.7,0.2 -1.1,0.3 -0.4,0.1 -0.7,0.3 -1.1,0.5 -0.2,0.1 -0.3,0.1 -0.3,0.1 l -0.4,0.3 c -0.3,0.2 -0.6,0.5 -0.9,0.7 -1.1,1 -1.9,2.2 -2.4,3.7 -0.9,2.9 -0.5,6.6 0.2,10.4 l 0.1,0.6 v 0.2 c 0,0.1 0,0.2 0,0.3 v 0.5 c 0,0.2 0,0.6 0.1,0.9 0.1,0.7 0.3,1.5 0.5,2.4 0.1,0.4 0.2,0.9 0.3,1.4 0.1,0.5 0.2,1 0.2,1.6 0.1,0.6 0.1,1 0.1,1.4 l -0.1,0.3 -0.1,0.1 v 0 0 0 c 0,0.1 1.5,0.2 -1.1,0.2 v 0 h 0.1 c 0.1,0 0.2,0 0.3,0 0.6,-0.1 1,-0.2 0.9,-0.2 z"
               id="path5256"
               style="fill:url(#linearGradient90924);fill-opacity:1;fill-rule:evenodd;stroke:#000000;stroke-opacity:1;stroke-width:0.04986636;stroke-miterlimit:4;stroke-dasharray:none;paint-order:normal;stroke-linejoin:round;stroke-linecap:butt" />
          </g>
        </g>
      </g>
      <g
         id="g5270"
         style="fill:url(#linearGradient90924);fill-opacity:1;fill-rule:evenodd;stroke:#000000;stroke-opacity:1;stroke-width:0.04986636;stroke-miterlimit:4;stroke-dasharray:none;paint-order:normal;stroke-linejoin:round;stroke-linecap:butt">
        <g
           id="g5268"
           style="fill:url(#linearGradient90924);fill-opacity:1;fill-rule:evenodd;stroke:#000000;stroke-opacity:1;stroke-width:0.04986636;stroke-miterlimit:4;stroke-dasharray:none;paint-order:normal;stroke-linejoin:round;stroke-linecap:butt">
          <g
             id="g5266"
             style="fill:url(#linearGradient90924);fill-opacity:1;fill-rule:evenodd;stroke:#000000;stroke-opacity:1;stroke-width:0.04986636;stroke-miterlimit:4;stroke-dasharray:none;paint-order:normal;stroke-linejoin:round;stroke-linecap:butt">
            <path
               fill="#646364"
               d="m 621.8,364.1 c -0.1,0.1 -0.1,0.2 -0.4,0.3 -0.8,0.4 -1.9,0.6 -2.9,0.2 -1,-0.4 -1.7,-1.5 -1.9,-3.5 0,-0.1 0,-0.4 0.1,-0.5 1.8,-2.6 3.1,-5.4 3.7,-8.3 1.2,-4.9 0.5,-10.2 -1,-15.3 -0.4,-1.3 -0.8,-2.6 -1.3,-3.9 -0.5,-1.4 -1,-2.6 -1.5,-3.8 -1,-2.4 -2.4,-4.7 -3.9,-6.9 -3.1,-4.5 -7,-8.8 -10,-14.3 -0.4,-0.7 -0.7,-1.4 -1.1,-2.1 -0.3,-0.7 -0.6,-1.4 -0.9,-2.1 -0.3,-0.8 -0.6,-1.5 -0.8,-2.3 l -0.3,-1.3 -0.2,-0.7 c 0,-0.2 -0.1,-0.5 -0.1,-0.7 -0.3,-1.8 0.1,-4.2 1.2,-6 1.1,-1.9 2.7,-3.2 4.1,-4 3,-1.7 5.8,-2.6 8.4,-3.6 0.7,-0.2 1.3,-0.5 1.9,-0.8 l 0.5,-0.2 0.2,-0.1 0.2,-0.1 c 0.2,-0.1 0.4,-0.2 0.6,-0.3 0.8,-0.5 1.6,-1.2 2.3,-2.1 1.5,-1.9 2.8,-4.5 4.8,-7 1,-1.3 2.1,-2.6 3.5,-3.7 0.2,-0.1 0.4,-0.3 0.6,-0.4 l 0.6,-0.4 c 0.3,-0.2 0.5,-0.4 0.9,-0.5 l 0.8,-0.2 c 0.8,-0.2 1.5,-0.4 2.2,-0.6 1.4,-0.4 2.6,-0.7 3.6,-1.1 0.3,-0.1 0.5,-0.3 0.8,-0.4 0.3,-0.1 0.5,-0.3 0.8,-0.4 l 0.7,-0.3 h 0.2 v 0 l -0.1,-0.1 c 0.1,-0.1 0.1,-0.2 0.1,-0.3 1.2,-1.5 1.9,-3.9 2.4,-6.6 0.3,-1.4 0.5,-2.8 1,-4.5 0.6,-1.6 1.1,-3.1 2.2,-4.7 0.3,-0.4 0.6,-0.8 0.9,-1.2 0.4,-0.4 0.8,-0.8 1.2,-1.1 1,-0.7 2.3,-1.3 3.8,-1.3 1.4,0 2.6,0.4 3.5,0.9 0.5,0.2 0.9,0.5 1.3,0.8 0.4,0.3 0.7,0.6 1.1,0.9 2.6,2.4 4.2,5 5.7,7.6 1.5,2.6 2.8,5.3 3.9,8.1 0.3,0.7 0.6,1.4 0.8,2.1 0.3,0.7 0.5,1.4 0.7,2.1 l 1.5,4.2 c 0.4,1.5 0.7,3 1.1,4.5 0.3,1.5 0.4,3.1 0.6,4.6 0.4,6.2 -0.8,12.4 -2.5,18 -0.9,2.8 -1.8,5.7 -3,8.3 -1.1,2.7 -2.2,5.4 -3.4,8 -4.9,10.6 -10.9,20.7 -18.2,29.9 l -1.8,2.3 -0.6,1.1 -1.6,2.6 c 0,0 -0.4,0.5 -1,1.3 -0.6,0.8 -1.5,2 -2.6,3.3 -2.2,2.5 -5.3,5.7 -8.8,7.1 -1.5,0.6 -2.8,0.9 -3.9,0.9 -1.1,0 -1.9,-0.2 -2.4,-0.5 -1.1,-0.5 -1.2,-0.9 -0.8,-1.1 0.4,-0.2 1.2,-0.3 2.2,-0.6 1,-0.3 2.2,-0.9 3.4,-1.8 -0.2,0 0.5,-0.4 1.5,-1.3 1,-0.9 2.2,-2.4 3.4,-4.1 1.1,-1.6 2.2,-3.4 2.9,-4.8 0.7,-1.4 1.3,-2.3 1.3,-2.3 l 1.5,-2.5 0.2,-0.3 c 0,-0.1 0.2,-0.3 0.3,-0.5 l 0.6,-0.7 1.3,-1.6 c 0.8,-1.1 1.7,-2.1 2.5,-3.3 3.3,-4.4 6.3,-9 9,-13.8 2.7,-4.8 5.2,-9.7 7.3,-14.8 0.6,-1.3 1.1,-2.5 1.6,-3.8 0.5,-1.3 1.1,-2.6 1.5,-3.8 l 1.3,-3.9 c 0.4,-1.3 0.7,-2.6 1.1,-3.9 1.3,-5.2 1.9,-10.4 1.1,-15.5 -0.4,-2.5 -1,-5.1 -2,-7.6 -0.9,-2.6 -1.8,-5.1 -3,-7.6 -1.1,-2.5 -2.4,-4.9 -3.8,-7.1 -0.7,-1.1 -1.4,-2.1 -2.2,-3 -0.8,-0.9 -1.6,-1.7 -2.2,-1.9 -0.3,-0.2 -0.4,-0.1 -0.5,-0.2 0,0 0,0 -0.2,0.1 -0.4,0.3 -1,1.2 -1.5,2.2 -0.2,0.5 -0.5,1.1 -0.6,1.6 -0.2,0.5 -0.3,1.1 -0.4,1.7 -0.3,1.3 -0.5,2.7 -0.9,4.2 -0.4,1.5 -0.8,3.1 -1.6,4.6 -0.2,0.4 -0.4,0.8 -0.6,1.2 -0.2,0.4 -0.5,0.8 -0.8,1.1 -0.1,0.2 -0.3,0.4 -0.4,0.5 l -0.5,0.6 -0.4,0.4 c -0.1,0.1 -0.3,0.2 -0.4,0.3 l -0.7,0.4 c -1.4,0.9 -3,1.6 -4.5,2.1 -1.5,0.5 -2.9,0.8 -4.1,1.2 l -0.6,0.2 -0.3,0.2 c -0.2,0.1 -0.4,0.3 -0.6,0.5 -0.2,0.2 -0.4,0.3 -0.6,0.6 -0.8,0.8 -1.5,1.7 -2.3,2.8 -1.5,2.1 -2.8,4.8 -5.2,7.3 -1.2,1.2 -2.8,2.4 -4.5,3.1 -1.3,0.6 -2.7,1.1 -4,1.6 -2.6,1 -5.2,1.9 -6.9,3.2 -0.8,0.6 -1.3,1.2 -1.5,1.8 0,0.2 -0.2,0.3 -0.1,0.5 0,0.2 0,0.4 -0.1,0.6 l 0.1,0.7 v 0.3 l 0.1,0.4 0.2,0.8 c 0.1,0.3 0.2,0.6 0.3,0.8 0.2,0.6 0.4,1.1 0.7,1.8 l 0.4,0.9 0.4,0.8 c 0.3,0.6 0.6,1.1 0.9,1.7 2.6,4.5 6.4,8.7 9.7,13.6 1.7,2.4 3.2,5.1 4.4,7.9 l 1.5,4.1 c 0.5,1.4 1,2.8 1.4,4.2 0.8,2.9 1.5,5.8 1.7,8.9 0.2,3.1 0.1,6.3 -0.7,9.3 -0.8,3.4 -2.5,7 -4.6,10.1 z"
               id="path5264"
               style="fill:url(#linearGradient90924);fill-opacity:1;fill-rule:evenodd;stroke:#000000;stroke-opacity:1;stroke-width:0.04986636;stroke-miterlimit:4;stroke-dasharray:none;paint-order:normal;stroke-linejoin:round;stroke-linecap:butt" />
          </g>
        </g>
      </g>
      <g
         id="g5278"
         style="fill:url(#linearGradient90924);fill-opacity:1;fill-rule:evenodd;stroke:#000000;stroke-opacity:1;stroke-width:0.04986636;stroke-miterlimit:4;stroke-dasharray:none;paint-order:normal;stroke-linejoin:round;stroke-linecap:butt">
        <g
           id="g5276"
           style="fill:url(#linearGradient90924);fill-opacity:1;fill-rule:evenodd;stroke:#000000;stroke-opacity:1;stroke-width:0.04986636;stroke-miterlimit:4;stroke-dasharray:none;paint-order:normal;stroke-linejoin:round;stroke-linecap:butt">
          <g
             id="g5274"
             style="fill:url(#linearGradient90924);fill-opacity:1;fill-rule:evenodd;stroke:#000000;stroke-opacity:1;stroke-width:0.04986636;stroke-miterlimit:4;stroke-dasharray:none;paint-order:normal;stroke-linejoin:round;stroke-linecap:butt">
            <path
               fill="#646364"
               d="m 606.3,283 c 0,0.2 0.1,0.3 0,0.5 -0.3,0.9 -1.1,2 -2,2.3 -1,0.3 -2.3,-0.2 -3.7,-1.2 -0.1,0 -0.3,-0.2 -0.3,-0.3 -0.2,-1.3 -0.8,-2.7 -1.5,-4.1 -0.7,-1.4 -1.5,-2.8 -2.4,-4.3 -1.1,-1.9 -2.2,-3.8 -3.2,-6 -0.9,-2.2 -1.7,-4.8 -1.5,-7.7 0,-0.7 0.2,-1.4 0.3,-2.1 0.1,-0.3 0.2,-0.7 0.3,-1.1 0.1,-0.4 0.2,-0.7 0.4,-1.1 0.7,-1.4 1.7,-2.6 2.6,-3.5 1,-0.9 1.9,-1.6 2.8,-2.2 0.8,-0.6 1.6,-1.2 2,-1.7 0.2,-0.2 0.3,-0.4 0.4,-0.6 0,0 0,0.1 0,0 l 0.1,-0.5 c 0,-0.8 0,-1.6 -0.1,-2.5 -0.3,-1.8 -0.9,-3.8 -1.4,-6.1 -0.3,-1.1 -0.4,-2.4 -0.5,-3.7 -0.1,-1.3 0.1,-2.7 0.4,-4.1 0.4,-1.5 1,-2.7 1.7,-3.8 0.7,-1.1 1.6,-2.1 2.6,-3.1 1,-0.9 2.1,-1.7 3.3,-2.3 1.2,-0.6 2.5,-1.1 3.7,-1.3 2.6,-0.6 5.1,-0.6 7.6,-0.1 2.5,0.4 4.8,1.3 7,2.5 2.2,1.2 4.2,2.8 5.8,4.7 0.8,1 1.5,2.1 2.2,3.2 0.6,1.2 1.1,2.5 1.3,3.7 0.6,2.4 0.7,4.9 0.7,7.1 v 1.9 c 0,0.5 0,1 0,1.4 0,0.5 0,0.9 0.1,1.4 l 0.1,1.3 c 0,0 0,0.1 0,0.3 0,0.2 0.1,0.6 0.1,1 0,0.3 0,0.1 0.1,0.6 0.1,0.3 0.1,0.6 0.2,1 0.1,0.7 0.3,1.5 0.4,2.4 0.2,1.7 0.4,3.8 0.1,5.9 -0.3,2.1 -1,4.1 -2,5.6 -1.6,2.7 -3.2,3.8 -4.2,4.4 -1,0.6 -1.4,0.5 -1.4,0.1 -0.1,-0.9 1.7,-3.2 2.5,-6.1 0,0.1 0,-0.1 0.1,-0.4 0,-0.2 0.1,-0.4 0.2,-0.6 0,-0.3 0.1,-0.5 0.2,-0.9 0.2,-1.3 0.2,-3.1 -0.2,-4.9 -0.2,-0.9 -0.4,-1.8 -0.7,-2.7 -0.2,-0.4 -0.3,-0.9 -0.4,-1.3 -0.1,-0.2 -0.2,-0.4 -0.2,-0.6 l -0.1,-0.3 -0.1,-0.2 c 0,-0.1 -0.1,-0.2 -0.1,-0.3 -0.2,-1 -0.4,-1.7 -0.5,-2.3 -0.1,-0.5 -0.1,-0.8 -0.1,-0.8 -0.1,-1.1 -0.1,-2.2 -0.2,-3.3 v -1.5 -1 c 0,-0.5 0,-1 0,-1.5 0,-1 -0.1,-1.9 -0.2,-2.8 -0.2,-0.9 -0.3,-1.8 -0.6,-2.5 -0.5,-1.5 -1.4,-2.9 -2.6,-4.1 -2.4,-2.4 -5.9,-4.1 -9.3,-4.4 -3.5,-0.4 -6.8,0.5 -8.9,2.8 -0.5,0.6 -1,1.2 -1.4,1.9 l -0.3,0.5 -0.1,0.3 -0.1,0.2 c 0,0.2 -0.1,0.3 -0.2,0.5 l -0.1,0.5 c -0.3,1.4 0,3.1 0.4,5 0.4,1.9 1.1,4 1.4,6.5 0.1,1.2 0.2,2.6 0,3.9 l -0.1,0.6 -0.1,0.4 c 0,0.1 -0.1,0.3 -0.2,0.4 -0.2,0.6 -0.4,0.9 -0.6,1.3 -0.2,0.4 -0.5,0.7 -0.7,1 l -0.4,0.4 -0.4,0.4 c -1,1 -2,1.7 -2.8,2.3 -0.8,0.6 -1.6,1.2 -2.1,1.7 -0.6,0.5 -0.9,1.1 -1.1,1.6 -0.1,0.3 -0.2,0.6 -0.3,0.9 -0.1,0.4 -0.2,0.7 -0.1,1.1 -0.1,1.4 0.4,3 1.1,4.7 0.7,1.7 1.7,3.4 2.8,5.3 0.9,1.5 1.8,3 2.6,4.7 0.7,1.8 1.5,3.6 1.9,5.7 z"
               id="path5272"
               style="fill:url(#linearGradient90924);fill-opacity:1;fill-rule:evenodd;stroke:#000000;stroke-opacity:1;stroke-width:0.04986636;stroke-miterlimit:4;stroke-dasharray:none;paint-order:normal;stroke-linejoin:round;stroke-linecap:butt" />
          </g>
        </g>
      </g>
      <g
         id="g5286"
         style="fill:url(#linearGradient90924);fill-opacity:1;fill-rule:evenodd;stroke:#000000;stroke-opacity:1;stroke-width:0.04986636;stroke-miterlimit:4;stroke-dasharray:none;paint-order:normal;stroke-linejoin:round;stroke-linecap:butt">
        <g
           id="g5284"
           style="fill:url(#linearGradient90924);fill-opacity:1;fill-rule:evenodd;stroke:#000000;stroke-opacity:1;stroke-width:0.04986636;stroke-miterlimit:4;stroke-dasharray:none;paint-order:normal;stroke-linejoin:round;stroke-linecap:butt">
          <g
             id="g5282"
             style="fill:url(#linearGradient90924);fill-opacity:1;fill-rule:evenodd;stroke:#000000;stroke-opacity:1;stroke-width:0.04986636;stroke-miterlimit:4;stroke-dasharray:none;paint-order:normal;stroke-linejoin:round;stroke-linecap:butt">
            <path
               fill="#646364"
               d="m 547.4,232.7 c 0,0.2 0,0.2 -0.1,0.5 -0.4,0.8 -1.1,1.8 -2.1,2 -1,0.3 -2.2,-0.1 -3.6,-1.5 0,0 -0.2,-0.3 -0.3,-0.4 -0.3,-3.1 -1.1,-6.3 -2,-9.6 -1,-4.2 -2.3,-8.5 -2.5,-13.3 -0.1,-2.4 0.1,-5 1.2,-7.7 0.3,-0.6 0.6,-1.2 0.9,-1.7 l 1,-1.5 c 0.7,-1 1.4,-1.9 2.2,-2.8 3,-3.5 6.5,-6.6 10.7,-9 2.1,-1.1 4.4,-2.1 7,-2.6 0.7,-0.1 1.3,-0.2 2,-0.2 0.7,0 1.4,0 2.1,0.1 l 1.1,0.2 0.6,0.1 0.3,0.1 c 0.1,0 0.2,0.1 0.3,0.1 l 1.1,0.5 c 0.3,0.1 0.6,0.4 0.9,0.6 2.5,1.6 4,3.9 5.2,5.5 0.6,0.8 1.1,1.5 1.6,2 0.5,0.4 0.8,0.6 1.3,0.7 0.1,0.1 0.3,0 0.4,0 l 0.9,0.1 c 0.4,0 0.8,0.1 1.2,0.1 0.7,0 1.5,-0.2 2.3,-0.4 1.6,-0.5 3.5,-1.6 6,-2.5 1.3,-0.4 2.7,-0.7 4.2,-0.6 1.5,0.1 3,0.4 4.2,1 0.3,0.1 0.9,0.4 0.4,0.2 l 0.9,0.3 c 0.6,0.2 1.2,0.4 1.7,0.6 1.2,0.5 2.3,1.1 3.4,1.9 l 0.8,0.6 c 0.1,0.1 0.3,0.2 0.4,0.3 l 0.7,0.7 c 0.5,0.5 0.9,1 1.3,1.6 0.8,1.1 1.3,2.4 1.7,3.6 0,0 0,0.2 0.1,0.5 0.1,0.3 0.2,0.8 0.2,1.4 0.2,1.2 0.2,2.7 0.1,4.4 0,0.4 -0.1,0.9 -0.1,1.3 0,0.4 0,0.8 -0.1,1.2 -0.1,0.7 0,1.6 0,2.5 0.1,1.8 0.2,3.6 0.2,5.4 0,0.7 0,1.4 0,2 0,0.6 -0.1,1.2 -0.2,1.7 -0.1,0.5 -0.2,0.9 -0.3,1.3 -0.1,0.4 -0.3,0.7 -0.4,1 -0.5,1 -0.9,1.2 -1.1,0.8 -0.1,-0.2 -0.2,-0.5 -0.3,-0.9 -0.1,-0.4 -0.1,-0.9 -0.2,-1.4 -0.2,-1.1 -0.5,-2.6 -1,-4.2 0,0.2 -0.2,-0.7 -0.6,-2.2 -0.4,-1.5 -1,-3.5 -1.2,-6 l -0.1,-0.9 -0.1,-0.8 c 0,-0.5 -0.1,-1 -0.1,-1.4 -0.1,-0.9 -0.3,-1.7 -0.4,-2.4 -0.2,-0.7 -0.3,-1.1 -0.5,-1.5 -0.1,-0.3 -0.2,-0.5 -0.2,-0.5 -0.3,-0.7 -0.6,-1.2 -1,-1.7 -0.2,-0.3 -0.4,-0.5 -0.7,-0.7 -0.1,-0.1 -0.1,-0.1 -0.2,-0.2 l -0.4,-0.3 c -0.3,-0.2 -0.7,-0.4 -1,-0.6 -0.7,-0.4 -1.5,-0.7 -2.4,-1 l -0.7,-0.2 -0.2,-0.1 c -0.2,-0.1 -0.3,-0.1 -0.5,-0.2 l -0.3,-0.1 -0.5,-0.2 c -0.2,-0.1 -0.3,-0.1 -0.5,-0.1 -1.3,-0.4 -2.5,-0.1 -4.2,0.5 -0.8,0.3 -1.8,0.8 -2.8,1.3 -1.1,0.4 -2.2,0.9 -3.5,1.2 -0.6,0.2 -1.3,0.2 -2,0.3 -0.7,0 -1.4,0.1 -2,0 l -1,-0.1 h -0.1 v 0 c 0,0 0.1,0 0.1,0 h -0.3 -0.6 c -0.4,0 -0.8,-0.1 -1.2,-0.2 -0.4,-0.1 -0.8,-0.2 -1.2,-0.4 -1.6,-0.6 -2.8,-1.7 -3.7,-2.7 -0.9,-1 -1.5,-2 -2.1,-2.8 -1.2,-1.7 -2.2,-2.8 -3.4,-3.4 -0.1,-0.1 -0.4,-0.2 -0.4,-0.2 0,0 -0.1,0 -0.1,0 0,0 -0.1,0 -0.2,0 -0.3,-0.1 -0.7,-0.2 -1,-0.1 -0.7,0 -1.5,0.1 -2.3,0.2 -1.6,0.3 -3.3,1.2 -5,2.1 -1.6,0.9 -3.2,2.1 -4.7,3.4 -1.5,1.3 -2.9,2.7 -4.1,4.2 -0.3,0.4 -0.6,0.7 -0.9,1.1 -0.3,0.4 -0.6,0.8 -0.8,1.2 -0.5,0.8 -1,1.5 -1.3,2.2 -0.1,0.4 -0.2,0.6 -0.3,1 l -0.2,1.2 -0.1,1.3 c 0,0.4 0,0.9 0,1.4 0.2,3.7 1.3,7.7 2.3,11.8 1.1,2.8 2,6.2 2.4,10 z"
               id="path5280"
               style="fill:url(#linearGradient90924);fill-opacity:1;fill-rule:evenodd;stroke:#000000;stroke-opacity:1;stroke-width:0.04986636;stroke-miterlimit:4;stroke-dasharray:none;paint-order:normal;stroke-linejoin:round;stroke-linecap:butt" />
          </g>
        </g>
      </g>
      <g
         id="g5294"
         style="fill:url(#linearGradient90924);fill-opacity:1;fill-rule:evenodd;stroke:#000000;stroke-opacity:1;stroke-width:0.04986636;stroke-miterlimit:4;stroke-dasharray:none;paint-order:normal;stroke-linejoin:round;stroke-linecap:butt">
        <g
           id="g5292"
           style="fill:url(#linearGradient90924);fill-opacity:1;fill-rule:evenodd;stroke:#000000;stroke-opacity:1;stroke-width:0.04986636;stroke-miterlimit:4;stroke-dasharray:none;paint-order:normal;stroke-linejoin:round;stroke-linecap:butt">
          <g
             id="g5290"
             style="fill:url(#linearGradient90924);fill-opacity:1;fill-rule:evenodd;stroke:#000000;stroke-opacity:1;stroke-width:0.04986636;stroke-miterlimit:4;stroke-dasharray:none;paint-order:normal;stroke-linejoin:round;stroke-linecap:butt">
            <path
               fill="#646364"
               d="m 533.7,205 c 0.2,0.1 0.2,0.1 0.4,0.3 0.6,0.7 1.1,1.7 1,2.7 -0.1,1 -0.9,2 -2.8,2.8 -0.1,0 -0.4,0.1 -0.5,0.1 -3,-1 -6.1,-1.7 -9.3,-1.9 -2.1,-0.1 -4.2,-0.1 -6.2,0.2 -0.5,0.1 -1,0.1 -1.5,0.2 l -1.6,0.3 c -0.5,0.1 -1,0.2 -1.5,0.4 -0.5,0.1 -1,0.3 -1.5,0.4 -1.9,0.6 -3.6,1.4 -4.9,2.6 -0.4,0.2 -0.6,0.6 -1,1 -0.3,0.3 -0.6,0.6 -0.9,1.1 l -0.7,1 c 0,0 0,0 0,0.1 0,0 0,0.2 -0.1,0.2 -0.1,0.2 -0.1,0.4 -0.1,0.6 -0.3,1.5 -0.1,3.5 0.2,5.7 0.3,2.2 0.7,4.7 0.4,7.6 0,0.7 -0.2,1.4 -0.4,2.2 -0.1,0.4 -0.2,0.7 -0.4,1.1 -0.1,0.4 -0.3,0.7 -0.4,1 l -0.5,0.9 v 0.1 -0.1 c 0,0 0,-0.1 0,-0.1 v 0.1 l -0.1,0.3 -0.3,0.5 c -0.2,0.4 -0.4,0.7 -0.6,1 -0.2,0.3 -0.4,0.7 -0.7,0.9 -1,1.2 -2.1,2.1 -3.2,2.8 -1.1,0.8 -2.1,1.3 -3,1.9 -0.9,0.6 -1.8,1.1 -2.5,1.7 -0.7,0.6 -1.3,1.2 -1.8,1.8 -0.2,0.3 -0.4,0.7 -0.6,1 -0.1,0.4 -0.3,0.6 -0.4,1.1 -0.1,0.4 -0.2,0.8 -0.2,1.2 0,0.2 -0.1,0.4 -0.1,0.6 0,0.2 0,0.4 0,0.5 0.1,0.7 0.2,1.3 0.6,1.9 0.4,0.6 1,1.3 1.7,2.1 1.4,1.5 3.5,3.4 4.8,6.1 l 0.2,0.5 0.1,0.3 c 0.2,0.4 -0.3,-0.5 -0.2,-0.4 v 0 0.1 l 0.1,0.1 c 0.2,0.4 0.4,0.7 0.5,1.1 0.2,0.4 0.3,0.8 0.4,1.2 0.1,0.4 0.2,0.8 0.3,1.2 0.3,1.6 0.1,3.1 -0.1,4.4 -0.5,2.6 -1.4,4.9 -1.9,6.8 l -0.2,0.7 -0.1,0.3 -0.1,0.6 c -0.1,0.4 -0.1,0.8 -0.1,1.1 0,0.3 0,0.7 0,1 0,0.1 0,0.3 0.1,0.4 0,0.1 0.1,0.3 0.1,0.3 0,0 0,0 0,0.1 v 0 c 0,0 0,0 0,0.1 0.1,0.1 0.2,0.3 0.2,0.5 0.4,0.7 1.1,1.7 2,2.7 1.9,2.1 5,4.2 7.8,5.3 2.4,0.9 4.2,0.9 5.2,1 1,0 1.5,0.2 1.3,0.6 -0.2,0.4 -1,1 -2.3,1.4 -1.3,0.4 -3.2,0.5 -5.1,0.3 0.2,0.1 -0.9,0 -2.5,-0.5 -1.6,-0.5 -3.8,-1.4 -5.8,-2.6 -2,-1.2 -3.9,-2.9 -5.1,-4.4 -0.3,-0.4 -0.6,-0.7 -0.8,-1.1 -0.2,-0.3 -0.4,-0.5 -0.5,-0.7 -0.1,-0.3 -0.2,-0.5 -0.2,-0.7 -0.2,-0.7 -0.4,-1.1 -0.4,-1.1 -0.2,-1.4 -0.3,-2.8 -0.1,-4 0.1,-0.6 0.2,-1.2 0.3,-1.8 l 0.1,-0.4 0.2,-0.8 c 0.2,-0.6 0.3,-1.2 0.5,-1.7 0.7,-2.2 1.4,-4.2 1.5,-5.8 0.1,-0.8 -0.1,-1.4 -0.2,-2 l -0.7,-1.3 -0.2,-0.5 -0.3,-0.5 c -0.9,-1.4 -2.4,-2.8 -4.1,-4.7 -0.9,-1 -1.7,-2.2 -2.3,-3.7 -0.6,-1.5 -0.8,-3.1 -0.7,-4.6 0.1,-0.7 0.1,-1.5 0.3,-2.2 0.2,-0.7 0.3,-1.4 0.6,-2.1 0.5,-1.4 1.4,-2.6 2.3,-3.8 1.9,-2.2 4.2,-3.5 6.1,-4.7 1.9,-1.2 3.4,-2.2 4.2,-3.3 0.1,-0.1 0.2,-0.3 0.3,-0.4 l 0.3,-0.7 0.3,-0.7 c 0.1,-0.2 0.2,-0.4 0.2,-0.6 0.3,-0.7 0.4,-1.5 0.5,-2.3 0.1,-1.8 -0.2,-3.8 -0.5,-6.1 -0.3,-2.3 -0.6,-5 0.1,-7.9 l 0.4,-1.1 c 0.1,-0.2 0.1,-0.5 0.3,-0.7 l 0.4,-0.6 1.1,-1.6 c 0.4,-0.5 0.9,-1 1.3,-1.5 l 0.7,-0.7 0.8,-0.6 c 1,-0.9 2.2,-1.6 3.4,-2.2 l 1.8,-0.8 c 0.6,-0.3 1.2,-0.4 1.8,-0.6 0.6,-0.2 1.2,-0.3 1.8,-0.5 0.6,-0.2 1.2,-0.3 1.7,-0.4 l 1.7,-0.4 1.8,-0.2 c 2.5,-0.3 4.9,-0.3 7.3,-0.2 3.7,0.1 7.3,0.9 10.8,2.1 z"
               id="path5288"
               style="fill:url(#linearGradient90924);fill-opacity:1;fill-rule:evenodd;stroke:#000000;stroke-opacity:1;stroke-width:0.04986636;stroke-miterlimit:4;stroke-dasharray:none;paint-order:normal;stroke-linejoin:round;stroke-linecap:butt" />
          </g>
        </g>
      </g>
      <g
         id="g5302"
         style="fill:url(#linearGradient90924);fill-opacity:1;fill-rule:evenodd;stroke:#000000;stroke-opacity:1;stroke-width:0.04986636;stroke-miterlimit:4;stroke-dasharray:none;paint-order:normal;stroke-linejoin:round;stroke-linecap:butt">
        <g
           id="g5300"
           style="fill:url(#linearGradient90924);fill-opacity:1;fill-rule:evenodd;stroke:#000000;stroke-opacity:1;stroke-width:0.04986636;stroke-miterlimit:4;stroke-dasharray:none;paint-order:normal;stroke-linejoin:round;stroke-linecap:butt">
          <g
             id="g5298"
             style="fill:url(#linearGradient90924);fill-opacity:1;fill-rule:evenodd;stroke:#000000;stroke-opacity:1;stroke-width:0.04986636;stroke-miterlimit:4;stroke-dasharray:none;paint-order:normal;stroke-linejoin:round;stroke-linecap:butt">
            <path
               fill="#646364"
               d="m 501.5,293.5 c 0,0 0,-0.1 0.2,-0.1 0.5,-0.1 1.2,-0.3 2.2,-0.4 1,-0.1 2.3,0 3.6,0.7 0,0 0.2,0.1 0.2,0.2 -0.1,1.5 -0.3,2.8 -0.4,4 -0.1,0.6 -0.1,1.1 -0.1,1.6 0,0.2 0,0.4 0,0.4 v 0 h -0.1 c -0.1,0 -0.3,0.1 -0.4,0.1 -0.3,0.1 -0.4,0.1 -0.6,0.2 -0.4,0.2 -0.6,0.3 -0.8,0.5 l 2.2,-0.4 c 0.4,0.9 1,1.5 2.3,2.1 1.2,0.5 2.8,0.8 4.5,0.9 0,0 0.7,0.2 1.6,0.5 1,0.3 2.3,0.7 3.3,1.1 1.9,0.6 2.4,1.3 2.2,1.9 -0.2,0.6 -1.1,1.1 -2.2,1.5 0.1,0.1 -1.2,0.4 -2.7,0.7 -0.7,0.1 -1.5,0.3 -2,0.3 -0.6,0.1 -1,0.1 -1,0.1 -2,-0.2 -4.1,-0.4 -6.4,-1.4 -0.6,-0.3 -1.1,-0.5 -1.6,-0.9 l -0.8,-0.5 c -0.3,-0.2 -0.5,-0.4 -0.8,-0.7 -0.5,-0.4 -0.9,-1 -1.3,-1.5 -0.4,-0.6 -0.7,-1.2 -1,-1.8 l 0.7,1 c -0.4,-0.4 -0.8,-1 -0.9,-1.3 -0.1,-0.2 -0.2,-0.4 -0.2,-0.6 l -0.1,-0.5 c -0.1,-0.6 -0.2,-1.1 -0.2,-1.6 0,-0.9 0,-1.6 0.1,-2.4 0.2,-1.3 0.5,-2.6 0.5,-3.7 z"
               id="path5296"
               style="fill:url(#linearGradient90924);fill-opacity:1;fill-rule:evenodd;stroke:#000000;stroke-opacity:1;stroke-width:0.04986636;stroke-miterlimit:4;stroke-dasharray:none;paint-order:normal;stroke-linejoin:round;stroke-linecap:butt" />
          </g>
        </g>
      </g>
      <g
         id="g5310"
         style="fill:url(#linearGradient90924);fill-opacity:1;fill-rule:evenodd;stroke:#000000;stroke-opacity:1;stroke-width:0.04986636;stroke-miterlimit:4;stroke-dasharray:none;paint-order:normal;stroke-linejoin:round;stroke-linecap:butt">
        <g
           id="g5308"
           style="fill:url(#linearGradient90924);fill-opacity:1;fill-rule:evenodd;stroke:#000000;stroke-opacity:1;stroke-width:0.04986636;stroke-miterlimit:4;stroke-dasharray:none;paint-order:normal;stroke-linejoin:round;stroke-linecap:butt">
          <g
             id="g5306"
             style="fill:url(#linearGradient90924);fill-opacity:1;fill-rule:evenodd;stroke:#000000;stroke-opacity:1;stroke-width:0.04986636;stroke-miterlimit:4;stroke-dasharray:none;paint-order:normal;stroke-linejoin:round;stroke-linecap:butt">
            <path
               fill="#646364"
               d="m 608,348.3 c 0,0.2 0,0.3 -0.1,0.6 -0.2,0.6 -0.5,1.2 -1,1.6 -0.4,0.5 -1.1,0.7 -1.6,0.6 -0.5,-0.1 -1,-0.4 -1.5,-0.8 -0.5,-0.4 -1.1,-0.7 -1.8,-1 -0.1,0 -0.2,-0.2 -0.3,-0.2 -0.1,-1 -0.7,-2.4 -1.5,-3.8 -0.7,-1.4 -1.6,-2.7 -2.5,-4.1 -1.6,-2.3 -3.4,-4.6 -5.3,-6.7 -0.9,-1.1 -1.9,-2.1 -2.9,-3.1 -0.5,-0.5 -1,-1 -1.5,-1.4 -0.2,-0.2 -0.5,-0.4 -0.7,-0.6 -0.1,-0.1 0.1,0 -0.4,-0.2 -2.5,-1.2 -5.2,-2.2 -7.9,-2.9 -2.7,-0.8 -5.4,-1.3 -7.9,-1.4 -1.2,0 -2.3,0.2 -3,0.5 -0.2,0.1 -0.2,0.1 -0.2,0.1 0.1,-0.1 -0.1,0.1 -0.2,0.2 0,0.1 -0.1,0.1 -0.1,0.2 l -0.1,0.3 c -0.1,0.2 -0.1,0.4 -0.2,0.7 -0.2,1 -0.3,2.4 -0.4,4 -0.1,1.6 -0.3,3.4 -1.1,5.4 -0.2,0.5 -0.5,1 -0.8,1.4 -0.3,0.5 -0.7,0.9 -1,1.3 -0.4,0.4 -0.8,0.7 -1.2,1.1 -0.5,0.3 -0.9,0.6 -1.4,0.9 -2,1 -3.9,1.2 -5.5,1.3 -1.6,0.1 -3.1,0.1 -4.4,0.2 -1.3,0.1 -2.4,0.3 -3.3,0.7 -0.9,0.4 -1.6,1 -2.3,1.8 -0.2,0.3 -0.2,0.3 -0.3,0.4 0,0 0,0.1 -0.1,0.2 l -0.1,0.3 c -0.1,0.2 -0.1,0.5 -0.1,0.7 l -0.1,0.4 v 0.4 c -0.1,1 0.2,2.2 0.5,3.4 0.4,1.2 0.8,2.4 1.5,3.6 1.2,2.3 2.8,4.6 4.6,6.5 0.9,1 1.9,1.8 2.9,2.6 l 0.7,0.5 1,0.7 0.8,0.5 c 0.3,0.2 0.6,0.3 0.9,0.4 2.3,1.2 5,2 7.7,2.7 l 4.3,1 1.1,0.3 c 0,0 0.5,0.1 0.8,0.1 0.7,0.1 1.3,0.2 2,0.2 2.7,0.2 5.6,0.1 8.4,-0.1 1.4,-0.2 2.8,-0.3 4.2,-0.6 0.7,-0.1 1.6,-0.2 2.3,-0.4 0.6,-0.1 0.9,-0.3 1.9,-0.4 v 0 c 0,-0.2 1.5,-0.4 2.4,-0.7 0.9,-0.2 1.6,-0.5 2.5,-0.8 0,0 0.5,-0.1 1.4,-0.3 0.9,-0.3 2.2,-0.6 3.7,-1 3,-0.9 6.6,-2.3 9.6,-3.6 2.5,-1.2 4.1,-2 5.1,-2.5 1,-0.4 1.4,-0.4 1.4,0.1 0,0.4 -0.5,1.2 -1.4,2.2 -0.4,0.5 -0.9,1 -1.5,1.6 -0.3,0.3 -0.6,0.6 -0.9,0.9 -0.3,0.3 -0.7,0.5 -1,0.8 0.4,-0.1 -3.1,2.5 -7.1,4.5 -1,0.5 -2,1 -2.9,1.4 -1,0.4 -1.9,0.8 -2.6,1.2 -1.6,0.6 -2.6,1 -2.6,1 -0.8,0.3 -1.6,0.5 -2.4,0.7 -0.8,0.2 -1.6,0.4 -2.4,0.6 v 0 l -1.9,0.4 c -0.8,0.2 -1.5,0.3 -2.3,0.4 -1.5,0.3 -3.1,0.4 -4.6,0.6 -3.1,0.3 -6.3,0.4 -9.5,0.1 -0.8,-0.1 -1.6,-0.2 -2.4,-0.3 -0.4,-0.1 -0.7,0 -1.4,-0.2 l -1.1,-0.3 -4.4,-1 c -3,-0.8 -6,-1.7 -9,-3.2 -0.4,-0.2 -0.8,-0.4 -1.1,-0.6 l -1.1,-0.7 -1.9,-1.3 c -1.4,-1 -2.7,-2.2 -3.8,-3.4 -2.3,-2.4 -4.1,-5 -5.6,-8 -1.5,-2.9 -2.7,-6.2 -2.6,-10.1 v -0.7 c 0,-0.2 0.1,-0.5 0.1,-0.7 0.1,-0.5 0.2,-1 0.3,-1.5 l 0.3,-0.7 0.3,-0.8 0.2,-0.5 0.3,-0.4 0.5,-0.6 c 1.2,-1.5 2.8,-2.9 4.7,-3.7 1.8,-0.8 3.7,-1.1 5.3,-1.2 1.7,-0.1 3.2,-0.1 4.5,-0.2 2.8,-0.1 4,-0.8 4.6,-2.2 0.3,-0.8 0.5,-1.9 0.6,-3.3 0.1,-1.4 0.1,-3 0.5,-4.9 0.1,-0.5 0.2,-1 0.4,-1.5 l 0.3,-0.8 0.4,-0.8 c 0.3,-0.5 0.6,-0.9 1.2,-1.5 0.2,-0.3 0.6,-0.4 0.9,-0.7 0.3,-0.2 0.6,-0.3 0.8,-0.5 2.1,-1 4,-1.1 5.7,-1.1 3.5,0.1 6.6,0.8 9.6,1.6 3,0.9 5.9,1.9 8.8,3.3 l 0.7,0.3 c 0.2,0.1 0.3,0.2 0.5,0.3 l 0.4,0.3 c 0.3,0.3 0.7,0.6 1,0.8 0.6,0.5 1.2,1.1 1.8,1.7 1.1,1.1 2.2,2.2 3.2,3.4 2,2.3 4,4.7 5.7,7.3 1,1.5 2,3 2.9,4.7 0.8,1.8 1.7,3.5 2.1,6 z"
               id="path5304"
               style="fill:url(#linearGradient90924);fill-opacity:1;fill-rule:evenodd;stroke:#000000;stroke-opacity:1;stroke-width:0.04986636;stroke-miterlimit:4;stroke-dasharray:none;paint-order:normal;stroke-linejoin:round;stroke-linecap:butt" />
          </g>
        </g>
      </g>
      <g
         id="g5318"
         style="fill:url(#linearGradient90924);fill-opacity:1;fill-rule:evenodd;stroke:#000000;stroke-opacity:1;stroke-width:0.04986636;stroke-miterlimit:4;stroke-dasharray:none;paint-order:normal;stroke-linejoin:round;stroke-linecap:butt">
        <g
           id="g5316"
           style="fill:url(#linearGradient90924);fill-opacity:1;fill-rule:evenodd;stroke:#000000;stroke-opacity:1;stroke-width:0.04986636;stroke-miterlimit:4;stroke-dasharray:none;paint-order:normal;stroke-linejoin:round;stroke-linecap:butt">
          <g
             id="g5314"
             style="fill:url(#linearGradient90924);fill-opacity:1;fill-rule:evenodd;stroke:#000000;stroke-opacity:1;stroke-width:0.04986636;stroke-miterlimit:4;stroke-dasharray:none;paint-order:normal;stroke-linejoin:round;stroke-linecap:butt">
            <path
               fill="#646364"
               d="m 505.4,343.6 c 0,0.2 0,0.2 -0.2,0.5 -0.1,0.1 -0.1,0.3 -0.2,0.5 0,0 -0.1,0.2 -0.2,0.4 -0.1,0.2 -0.1,0.3 -0.2,0.5 -0.3,0.6 -0.8,1.1 -1.4,1.3 -0.1,0.1 -0.3,0.1 -0.4,0.1 -0.1,0 -0.2,0 -0.2,0 -0.1,0 -0.3,0 -0.4,0 -0.7,-0.3 -0.9,-0.8 -1,-1.3 -0.1,-0.5 -0.1,-1.1 0.1,-1.7 0.1,-0.2 0.1,-0.3 0.2,-0.5 0,-0.1 0.1,-0.2 0.1,-0.2 v -0.1 -0.1 0 c 0,0 0,0 0,0.1 0,0.1 0,0.1 0,0.1 0,0.3 0.1,0.7 0.2,1.1 0,0.1 0,0.1 0.1,0.2 0,0 0,0 0.1,0.1 0,0 0,0 -0.1,-0.1 0,0 -0.1,0 -0.1,0 0,0 0,0 -0.2,-0.1 -0.2,-0.1 -0.5,-0.2 -0.7,-0.2 l -0.2,-0.1 h -0.1 c 0,0 0,0.1 -0.2,0 l -0.7,-0.1 h -0.2 v 0 0 h -0.1 c 0,0.1 -0.2,-0.3 -0.2,-0.4 0,-1.1 -0.4,-2.4 -1,-3.6 -0.6,-1.3 -1.4,-2.6 -2.4,-3.9 -1.2,-1.7 -2.7,-3.4 -4.2,-5.1 -1.5,-1.7 -3,-3.4 -4.6,-5.3 l -0.3,-0.4 c -0.1,-0.1 -0.3,-0.3 -0.4,-0.6 l -0.4,-0.7 -0.9,-1.4 -1.9,-2.9 c -1.2,-2 -2.5,-4 -3.6,-6.1 -1.2,-2.1 -2.3,-4.3 -3.1,-6.7 -0.4,-1.2 -0.8,-2.5 -1,-3.8 -0.1,-0.3 -0.1,-0.7 -0.2,-1 l -0.1,-1.1 -0.1,-2 v -0.5 -0.6 l 0.1,-1.1 c 0,-0.4 0.2,-0.8 0.2,-1.2 0.1,-0.4 0.2,-0.8 0.3,-1.2 0.6,-1.6 1.7,-3 3.1,-4.1 1.4,-1 3.1,-1.6 4.7,-1.9 1.5,-0.2 2.6,-0.2 4.6,0.1 v 0 c 2,0.4 3.5,1.1 5.1,2 1.5,1 2.9,2.2 4.1,3.6 2.3,2.8 3.5,5.6 5,8 0.7,1.2 1.4,2.2 2.2,3 0.2,0.2 0.4,0.4 0.6,0.6 l 0.3,0.3 0.4,0.3 0.2,0.2 c 0.4,0.4 0.8,0.7 1.3,1 0.9,0.5 1.8,0.9 2.9,1 1.1,0.2 2.5,0.1 4.1,0.1 0.8,0 1.6,0 2.5,0.1 0.5,0.1 0.9,0.1 1.4,0.2 0.2,0.1 0.5,0.1 0.7,0.2 l 0.7,0.2 c 1.8,0.6 3.4,1.6 4.9,2.7 2.8,2.3 4.6,5.1 6.3,7.4 0.4,0.6 0.8,1.1 1.3,1.7 l 0.7,0.9 c 0.3,0.4 0.7,0.7 1,1.1 0.7,0.6 1.4,1.2 2.1,1.6 0,0 0.1,0.1 0.3,0.2 0.1,0.1 0.1,0.1 0.2,0.1 0,0 0,0 0,0 l 0.1,0.1 c 0.1,0 0.2,0.1 0.3,0.1 0.8,0.4 2,0.9 3.4,1.3 2.8,0.9 6.5,1.5 9.4,1 2.5,-0.5 4,-1.3 4.9,-1.8 0.9,-0.5 1.4,-0.6 1.4,-0.1 0,0.2 -0.1,0.5 -0.3,0.9 -0.2,0.4 -0.5,0.9 -1,1.4 -0.9,1 -2.4,2.2 -4.3,2.9 0.1,0 -0.1,0.1 -0.5,0.2 -0.2,0.1 -0.5,0.2 -0.8,0.3 -0.3,0.1 -0.7,0.2 -1.1,0.3 -1.7,0.4 -4.1,0.5 -6.4,0.4 -2.3,-0.2 -4.7,-0.6 -6.4,-1.2 -0.2,-0.1 -0.4,-0.1 -0.6,-0.2 -0.1,0 -0.2,-0.1 -0.3,-0.1 -0.1,-0.1 -0.3,-0.1 -0.4,-0.1 -0.4,-0.2 -0.7,-0.4 -1,-0.5 -0.3,-0.1 -0.5,-0.2 -0.6,-0.3 -0.1,-0.1 -0.2,-0.1 -0.2,-0.1 -1.1,-0.8 -2.2,-1.7 -3,-2.6 l -0.7,-0.7 -0.6,-0.8 c -1,-1.2 -1.9,-2.5 -2.7,-3.6 -1.6,-2.3 -3.2,-4.3 -5,-5.5 -0.4,-0.3 -0.9,-0.5 -1.4,-0.8 -0.5,-0.1 -1,-0.4 -1.5,-0.5 -1,-0.2 -2.3,-0.2 -3.7,-0.2 -1.4,0 -3.1,0 -4.9,-0.4 -1.8,-0.4 -3.7,-1.2 -5.1,-2.3 -0.4,-0.3 -0.7,-0.6 -1.1,-0.9 l -0.5,-0.5 c 0,0 -0.1,-0.1 0,0 l 0.1,0.1 0.1,0.1 -0.1,-0.1 -0.3,-0.2 c -0.7,-0.6 -1.4,-1.2 -1.9,-1.9 -1.2,-1.3 -2,-2.7 -2.8,-4 -1.5,-2.6 -2.7,-5.1 -4.3,-6.9 -0.7,-0.9 -1.6,-1.5 -2.6,-2.1 -0.9,-0.6 -2,-1 -3,-1.2 v 0 c -0.8,-0.2 -1.6,-0.2 -2.4,-0.1 -0.7,0.1 -1.3,0.4 -1.8,0.7 -0.4,0.4 -0.7,0.8 -1,1.4 -0.1,0.1 -0.1,0.3 -0.1,0.5 0,0.2 -0.1,0.3 -0.1,0.5 v 0.6 0.3 0.3 l 0.1,1.7 v 0.6 c 0,0.2 0.1,0.5 0.1,0.7 0.1,0.9 0.4,1.9 0.7,2.8 0.7,1.9 1.6,3.9 2.7,5.8 1.1,1.9 2.2,3.8 3.5,5.7 l 1.9,2.9 0.9,1.5 0.5,0.7 c -0.1,-0.1 0.2,0.2 0.3,0.4 1.3,1.6 2.9,3.3 4.4,5.1 1.5,1.8 3.1,3.6 4.5,5.6 1.1,1.5 2.1,3.1 3,4.9 0.5,2 1.2,4.1 1.3,6.5 z"
               id="path5312"
               style="fill:url(#linearGradient90924);fill-opacity:1;fill-rule:evenodd;stroke:#000000;stroke-opacity:1;stroke-width:0.04986636;stroke-miterlimit:4;stroke-dasharray:none;paint-order:normal;stroke-linejoin:round;stroke-linecap:butt" />
          </g>
        </g>
      </g>
      <g
         id="g5326"
         style="fill:url(#linearGradient90924);fill-opacity:1;fill-rule:evenodd;stroke:#000000;stroke-opacity:1;stroke-width:0.04986636;stroke-miterlimit:4;stroke-dasharray:none;paint-order:normal;stroke-linejoin:round;stroke-linecap:butt">
        <g
           id="g5324"
           style="fill:url(#linearGradient90924);fill-opacity:1;fill-rule:evenodd;stroke:#000000;stroke-opacity:1;stroke-width:0.04986636;stroke-miterlimit:4;stroke-dasharray:none;paint-order:normal;stroke-linejoin:round;stroke-linecap:butt">
          <g
             id="g5322"
             style="fill:url(#linearGradient90924);fill-opacity:1;fill-rule:evenodd;stroke:#000000;stroke-opacity:1;stroke-width:0.04986636;stroke-miterlimit:4;stroke-dasharray:none;paint-order:normal;stroke-linejoin:round;stroke-linecap:butt">
            <path
               fill="#646364"
               d="m 554.7,371.2 c 0.1,0 0.1,0 0.2,0 0.5,0.2 1.1,0.7 2.1,1 0.5,0.1 1,0.3 1.4,0.9 0.2,0.3 0.3,0.8 0.2,1.2 0,0.5 -0.2,1.1 -0.6,1.8 0,0.1 -0.3,0.5 -0.5,0.6 -2.3,1.1 -4.2,1.3 -6.1,1.5 -1.9,0.2 -3.7,0.2 -5.5,0.2 -2.8,0 -5.6,-0.2 -8.4,-0.5 -1.4,-0.1 -2.8,-0.3 -4.2,-0.5 -0.7,-0.1 -1.4,-0.2 -2.1,-0.3 l -1.1,-0.2 h -0.6 l -0.1,0.1 v 0 c 0,0 0,0 0,0 l -1.9,-0.2 -2,-0.2 -4,-0.3 c -2.7,-0.2 -5.5,-0.4 -8.2,-0.6 -5.5,-0.6 -11.3,-1.6 -16.7,-4.2 -2.7,-1.3 -5.2,-3.1 -7.4,-5.2 l -0.8,-0.8 -0.5,-0.5 c -0.1,-0.1 -0.2,-0.2 -0.3,-0.4 l -0.2,-0.3 c -0.5,-0.7 -0.9,-1.3 -1.2,-2 -0.7,-1.4 -1.3,-2.7 -1.8,-4.1 -1,-2.8 -1.7,-5.8 -1.6,-9.1 0,-1.6 0.3,-3.4 1.1,-5.1 0.4,-0.9 0.9,-1.7 1.6,-2.5 0.7,-0.8 1.4,-1.4 2.6,-1.9 1.7,-0.8 3.7,-1.1 5.6,-0.9 1.9,0.2 3.4,0.8 4.8,1.4 1.4,0.6 2.6,1.3 3.8,1.9 1.1,0.6 2.2,1.1 3.1,1.3 0.2,0.1 0.4,0.1 0.6,0.1 h 0.3 c 0.1,0 0.2,0 0.2,0 0.3,0 0.7,-0.2 0.6,-0.1 -0.1,0.1 0.2,-0.2 0.5,-0.6 0.3,-0.4 0.7,-0.9 1.1,-1.5 0.8,-1.1 1.7,-2.5 3.2,-3.7 0.8,-0.6 1.7,-1.2 2.7,-1.5 1,-0.3 2,-0.5 3,-0.5 0.2,0 0.5,0 0.7,0 0.2,0 0.6,0 0.6,0.1 l 0.5,0.1 c 0.4,0.1 0.7,0.1 1,0.2 0.6,0.2 1.3,0.4 1.8,0.6 1.1,0.5 2.2,1 3.1,1.6 0,0 0.5,0.4 1.4,1 0.2,0.2 0.4,0.3 0.7,0.5 l 0.2,0.1 0.3,0.2 c 0.2,0.2 0.5,0.3 0.7,0.6 0.2,0.2 0.3,0.5 0.5,0.7 0.1,0.2 0.2,0.3 0.3,0.5 0.2,0.3 0.4,0.7 0.6,1 0.9,1.4 1.7,3 2.6,4.5 0.9,1.5 1.8,2.8 2.9,3.8 1.9,1.6 3.6,2.3 4.5,2.8 1,0.5 1.2,0.9 0.9,1.1 -0.2,0.1 -0.5,0.2 -0.9,0.3 -0.4,0.1 -1,0.1 -1.7,0 -1.3,-0.1 -3.1,-0.5 -4.9,-1.5 0.2,0.1 -0.9,-0.4 -2.2,-1.5 -1.3,-1.2 -2.8,-2.9 -4.1,-4.6 -0.7,-0.8 -1.3,-1.6 -1.9,-2.4 -0.2,-0.2 -0.3,-0.4 -0.5,-0.5 -0.1,-0.1 -0.1,-0.1 -0.1,-0.1 0,0 0,0 0,0 0.1,0.1 -0.5,-0.2 -0.8,-0.4 -1.4,-0.8 -2.2,-1.2 -2.2,-1.2 -0.8,-0.4 -1.5,-0.8 -2.2,-1 -0.3,-0.1 -0.7,-0.2 -1,-0.3 h -0.2 -0.1 c -0.1,0 -0.1,0 -0.1,0 h -0.3 c -0.4,0 -0.7,0.1 -1,0.2 -0.5,0.2 -1.1,0.6 -1.7,1.4 -0.7,0.8 -1.3,1.9 -2.3,3.1 -0.2,0.3 -0.5,0.7 -0.8,1 -0.3,0.4 -0.7,0.7 -1.3,1.1 -0.3,0.2 -0.6,0.4 -0.9,0.5 l -0.9,0.3 c -0.5,0.1 -1,0.3 -1.5,0.3 -0.5,0 -1,0.1 -1.5,0 -0.5,-0.1 -1,-0.1 -1.4,-0.2 l -1.3,-0.3 c -0.4,-0.1 -0.8,-0.3 -1.2,-0.4 -1.5,-0.6 -2.7,-1.3 -3.9,-1.9 -1.1,-0.6 -2.2,-1.2 -3.2,-1.5 -1,-0.3 -1.9,-0.5 -2.6,-0.4 -0.2,0 -0.4,0.1 -0.6,0.1 h -0.3 l -0.3,0.1 c -0.5,0.2 -0.4,0.1 -0.7,0.4 -0.5,0.4 -0.8,1 -1,1.9 -0.2,0.9 -0.3,1.9 -0.2,3 0.1,2.2 0.7,4.5 1.6,6.7 0.4,1.1 1,2.2 1.5,3.1 0.1,0.2 0.3,0.5 0.4,0.7 l 0.1,0.1 c 0,0 0,0 0,0 l 0.2,0.2 1.2,1.2 c 1.7,1.5 3.7,2.8 5.9,3.8 2.2,1 4.5,1.7 7,2.2 2.4,0.5 5,0.9 7.5,1.1 2.6,0.2 5.2,0.4 7.8,0.6 l 4,0.2 2,0.1 1,0.1 h 0.5 0.3 c 0.2,0 0.3,0 0.5,0.1 l 1,0.2 0.9,0.2 c 0.6,0.1 1.2,0.2 1.9,0.3 1.3,0.2 2.5,0.3 3.8,0.5 2.6,0.3 5.1,0.4 7.7,0.4 1.6,0 3.3,0 4.8,-0.2 1.6,-0.1 3.1,-0.4 4,-0.8 z"
               id="path5320"
               style="fill:url(#linearGradient90924);fill-opacity:1;fill-rule:evenodd;stroke:#000000;stroke-opacity:1;stroke-width:0.04986636;stroke-miterlimit:4;stroke-dasharray:none;paint-order:normal;stroke-linejoin:round;stroke-linecap:butt" />
          </g>
        </g>
      </g>
      <g
         id="g5334"
         style="fill:url(#linearGradient90924);fill-opacity:1;fill-rule:evenodd;stroke:#000000;stroke-opacity:1;stroke-width:0.04986636;stroke-miterlimit:4;stroke-dasharray:none;paint-order:normal;stroke-linejoin:round;stroke-linecap:butt">
        <g
           id="g5332"
           style="fill:url(#linearGradient90924);fill-opacity:1;fill-rule:evenodd;stroke:#000000;stroke-opacity:1;stroke-width:0.04986636;stroke-miterlimit:4;stroke-dasharray:none;paint-order:normal;stroke-linejoin:round;stroke-linecap:butt">
          <g
             id="g5330"
             style="fill:url(#linearGradient90924);fill-opacity:1;fill-rule:evenodd;stroke:#000000;stroke-opacity:1;stroke-width:0.04986636;stroke-miterlimit:4;stroke-dasharray:none;paint-order:normal;stroke-linejoin:round;stroke-linecap:butt">
            <path
               fill="#646364"
               d="m 554.4,373.4 c 0.1,-0.1 0.2,-0.1 0.4,0 0.4,0 0.7,0.2 1.2,0.3 0.3,0.2 0.8,0.4 1.2,0.7 0.4,0.3 0.9,0.7 1,1.3 0.1,0.3 0.1,0.7 0,1.2 -0.1,0.4 -0.3,0.9 -0.5,1.5 0,0.1 -0.2,0.4 -0.4,0.5 l -2.2,1.1 c -0.3,0.2 -0.6,0.3 -0.9,0.5 l -0.2,0.1 c 0,0 0,0 -0.1,0.1 l -0.2,0.2 -1,0.7 c -0.9,0 -1.8,0.1 -1.9,0.1 -0.3,0.1 -0.6,0.1 -0.9,0.2 -0.6,0.2 -1,0.4 -1.2,0.6 0,0 0,0 0,0 0,0 0,0 0,0 -0.1,0 -0.1,-0.1 -0.2,-0.1 l -0.2,-0.1 c 0,0 -0.1,0 -0.1,-0.1 0,0 -0.1,0 -0.1,-0.1 v 0 c 0,0 -0.1,0 0,0 0,0 0,-0.1 0.1,-0.1 v -0.1 0 l -0.2,2.3 h 0.1 0.1 v 0 c 0,0 -0.1,0 -0.1,0 v 0 c 0,0 -0.1,0.1 -0.1,0.3 0,0.1 0,0.1 0,0.2 0,0.1 0,0.1 0,0.2 0,0.1 0.1,0.1 0.1,0.2 v 0.1 l 0.1,0.2 0.3,0.3 0.2,0.2 c 0.1,0.1 0,0.1 0.4,0.2 l 1.8,0.2 1.8,0.2 3.5,0.3 0.9,0.1 -0.3,0.2 -0.5,0.4 -0.8,0.7 -1.2,1 -1,0.8 -0.1,0.1 c -0.1,0 0,0 0,0 l -1.5,1.3 c -0.6,0.5 -1.2,1 -1.8,1.4 -1.3,0.9 -3.4,1.3 -5.5,1.6 l -2.2,0.2 c -0.5,0.1 -1,0.1 -1.3,0.2 -0.8,0.2 -1.3,0.4 -1.4,0.5 0,0.1 -0.1,0.1 -0.1,0.1 0,0.1 0,0.1 -0.1,0.2 0,0.1 0,0.2 -0.1,0.3 v 0.1 l -0.1,0.5 -0.1,0.3 c -0.3,0.8 -0.3,1.5 -0.3,2.2 0,0.6 0.2,1.1 0.5,1.5 0.3,0.5 0.8,0.9 1.5,1.3 v 0 c 1,0.6 2.4,1.1 3.9,1.5 1.5,0.3 3,0.6 4.6,0.7 3.2,0.2 6.5,0.1 9.8,-0.2 1.7,-0.2 3.2,-0.3 4.8,-0.7 0.8,-0.2 1.6,-0.3 2.3,-0.5 0.8,-0.2 1.5,-0.4 2.3,-0.7 3,-1 5.9,-2.5 8.7,-4.2 5.6,-3.5 10.8,-7.9 16.3,-12.1 1.4,-1.1 2.8,-2.1 4.3,-3.1 l 2.3,-1.6 c 1.1,-0.8 2.2,-1.5 3.3,-2.3 0,0 1.9,-1.2 4.3,-3 2.4,-1.8 5.2,-4.4 7.1,-6.9 1.5,-2.2 2.3,-3.8 2.7,-4.7 0.5,-0.9 0.9,-1.2 1.1,-0.9 0.1,0.2 0.2,0.5 0.3,0.9 0.1,0.4 0.1,1 0,1.7 -0.1,0.7 -0.1,1.4 -0.4,2.2 -0.2,0.8 -0.5,1.7 -0.9,2.6 0.1,-0.2 -0.3,0.8 -1.1,2.3 -0.8,1.4 -2.2,3.3 -3.6,5 -1.5,1.7 -3.1,3.3 -4.4,4.4 -0.6,0.6 -1.2,1 -1.5,1.4 -0.4,0.3 -0.6,0.5 -0.6,0.5 -1.1,0.8 -2.3,1.6 -3.4,2.4 l -1,0.7 -2,1.4 c -1.3,0.9 -2.6,1.9 -3.9,2.9 -5.2,4.1 -10.5,8.5 -16.6,12.1 -3,1.8 -6.3,3.4 -9.8,4.5 -3.5,1.1 -7.1,1.7 -10.6,2 -3.5,0.3 -7,0.4 -10.6,0.1 -1.8,-0.1 -3.6,-0.4 -5.4,-0.8 -1.8,-0.5 -3.7,-1 -5.6,-2.2 v 0 c -1.2,-0.7 -2.4,-1.8 -3.3,-3.1 -0.9,-1.3 -1.5,-3 -1.6,-4.6 -0.1,-1.5 0.1,-3 0.5,-4.3 l 0.2,-0.7 c 0.1,-0.4 0.2,-0.8 0.4,-1.2 0.2,-0.4 0.4,-0.9 0.7,-1.3 0.3,-0.4 0.6,-0.8 1,-1.1 1.5,-1.4 3.2,-1.8 4.5,-2.1 0.7,-0.1 1.3,-0.2 1.9,-0.3 l 1,-0.1 v 0 -0.1 l -0.1,-0.1 v -0.1 l -0.1,-0.2 c -0.1,-0.3 -0.2,-0.5 -0.3,-0.8 -0.1,-0.3 -0.2,-0.6 -0.2,-0.9 -0.1,-0.3 -0.1,-0.6 -0.1,-0.9 -0.1,-1.3 0.1,-2.7 0.9,-4 v 0 c 0.2,-0.4 0.6,-0.8 0.9,-1.2 l 0.1,-0.1 v 0 0 0 h 0.2 c -1.8,4.4 -0.7,1.2 -0.7,2.2 v 0 l -0.2,-0.1 -0.1,-0.2 v -0.4 c 0,-0.3 0.1,-0.6 0.2,-0.9 0.4,-1.1 1,-2 1.7,-2.6 1.2,-1 2.4,-1.6 3.5,-1.9 0.6,-0.2 1.1,-0.3 1.7,-0.4 0.8,-0.1 0.8,-0.1 0.8,-0.1 l 0.5,-0.3 c 0.4,-0.3 0.8,-0.5 1.3,-0.7 z"
               id="path5328"
               style="fill:url(#linearGradient90924);fill-opacity:1;fill-rule:evenodd;stroke:#000000;stroke-opacity:1;stroke-width:0.04986636;stroke-miterlimit:4;stroke-dasharray:none;paint-order:normal;stroke-linejoin:round;stroke-linecap:butt" />
          </g>
        </g>
      </g>
      <g
         id="g5342"
         style="fill:url(#linearGradient90924);fill-opacity:1;fill-rule:evenodd;stroke:#000000;stroke-opacity:1;stroke-width:0.04986636;stroke-miterlimit:4;stroke-dasharray:none;paint-order:normal;stroke-linejoin:round;stroke-linecap:butt">
        <g
           id="g5340"
           style="fill:url(#linearGradient90924);fill-opacity:1;fill-rule:evenodd;stroke:#000000;stroke-opacity:1;stroke-width:0.04986636;stroke-miterlimit:4;stroke-dasharray:none;paint-order:normal;stroke-linejoin:round;stroke-linecap:butt">
          <g
             id="g5338"
             style="fill:url(#linearGradient90924);fill-opacity:1;fill-rule:evenodd;stroke:#000000;stroke-opacity:1;stroke-width:0.04986636;stroke-miterlimit:4;stroke-dasharray:none;paint-order:normal;stroke-linejoin:round;stroke-linecap:butt">
            <path
               fill="#646364"
               d="m 616.9,365.5 c 0,-0.1 0,-0.2 0.2,-0.3 0.6,-0.5 1.4,-1.1 2.5,-1.2 1,-0.1 2.2,0.3 3.2,2.4 0,0.1 0.1,0.4 0.1,0.6 -1,3.8 -2.5,7 -3.9,10.1 -1.8,4 -3.5,7.9 -3.9,11.7 -0.1,0.5 0,0.9 -0.1,1.4 v 0.4 0.3 0.6 c 0.1,0.7 0.3,1.3 0.5,1.6 0.2,0.3 0.5,0.5 1,0.6 0.5,0.2 1.3,0.1 2.1,0 0.8,-0.1 1.6,-0.4 2.4,-0.8 0.4,-0.2 0.8,-0.4 1.2,-0.6 0.2,-0.1 0.4,-0.2 0.6,-0.4 l 0.8,-0.5 c 1.6,-1 3.1,-2.3 4.6,-3.8 1.6,-1.5 3.3,-3.3 5.5,-4.8 1.1,-0.8 2.4,-1.4 3.6,-1.8 0.7,-0.2 1.3,-0.4 2,-0.6 l 1.7,-0.4 1.5,-0.3 c 0.5,-0.1 0.9,-0.3 1.4,-0.4 0.9,-0.2 1.8,-0.7 2.6,-1.1 1.6,-0.9 3.1,-2 4.2,-3.4 1.1,-1.4 2.1,-3.1 2.8,-4.9 0.7,-1.9 1.2,-3.8 1.5,-5.9 0.3,-2.1 0.5,-4.2 0.6,-6.3 0.1,-1.1 0,-2.2 0.1,-3.2 l 0.1,-3.4 0.1,-3.5 c 0,-1 0.1,-2.1 0.1,-3.1 0,0 0.3,-2.4 0.7,-5.6 0.4,-3.2 1.1,-7.2 1.6,-10.4 1.6,-11.1 2.9,-6.8 3.4,0.3 0.1,-0.4 0.2,3.8 0.3,8.1 0,4.3 0.1,8.6 0.1,8.6 -0.1,1 -0.1,2 -0.1,2.9 l -0.1,4.2 -0.1,3.3 c 0,1.1 -0.1,2.3 -0.1,3.4 -0.2,2.3 -0.4,4.6 -0.8,7 -0.5,2.3 -1.1,4.7 -2.1,7 -1,2.3 -2.3,4.5 -4.2,6.4 l -0.7,0.7 -0.7,0.6 c -0.5,0.4 -1,0.9 -1.5,1.2 l -1.6,1 c -0.5,0.4 -1.1,0.6 -1.7,0.9 -1.1,0.6 -2.3,0.9 -3.5,1.3 -1.2,0.4 -2.4,0.5 -3.6,0.8 -1.7,0.3 -3.2,0.9 -4.7,2 -1.5,1.1 -2.9,2.6 -4.6,4.2 -0.8,0.8 -1.7,1.6 -2.7,2.4 -0.5,0.4 -1,0.8 -1.5,1.1 l -0.8,0.5 -0.3,0.2 h 0.1 v 0 0 l -0.1,0.1 -0.2,0.1 c -2.2,1.5 -4.6,2.6 -7.5,3 -1.4,0.2 -3,0.1 -4.6,-0.4 -0.4,-0.2 -0.8,-0.3 -1.2,-0.5 -0.4,-0.2 -0.8,-0.5 -1.2,-0.7 -0.7,-0.6 -1.4,-1.2 -1.8,-2 -0.1,-0.2 -0.3,-0.4 -0.4,-0.6 l -0.3,-0.6 c -0.2,-0.4 -0.3,-0.8 -0.4,-1.2 -0.2,-0.7 -0.4,-1.5 -0.4,-2.2 -0.1,-0.7 -0.1,-1.4 0,-2 0,-0.6 0,-1.3 0.1,-1.9 0.6,-5 2.6,-9.4 4.4,-13.4 1.5,-2.9 2.9,-5.9 3.7,-8.8 z"
               id="path5336"
               style="fill:url(#linearGradient90924);fill-opacity:1;fill-rule:evenodd;stroke:#000000;stroke-opacity:1;stroke-width:0.04986636;stroke-miterlimit:4;stroke-dasharray:none;paint-order:normal;stroke-linejoin:round;stroke-linecap:butt" />
          </g>
        </g>
      </g>
      <g
         id="g5350"
         style="fill:url(#linearGradient90924);fill-opacity:1;fill-rule:evenodd;stroke:#000000;stroke-opacity:1;stroke-width:0.04986636;stroke-miterlimit:4;stroke-dasharray:none;paint-order:normal;stroke-linejoin:round;stroke-linecap:butt">
        <g
           id="g5348"
           style="fill:url(#linearGradient90924);fill-opacity:1;fill-rule:evenodd;stroke:#000000;stroke-opacity:1;stroke-width:0.04986636;stroke-miterlimit:4;stroke-dasharray:none;paint-order:normal;stroke-linejoin:round;stroke-linecap:butt">
          <g
             id="g5346"
             style="fill:url(#linearGradient90924);fill-opacity:1;fill-rule:evenodd;stroke:#000000;stroke-opacity:1;stroke-width:0.04986636;stroke-miterlimit:4;stroke-dasharray:none;paint-order:normal;stroke-linejoin:round;stroke-linecap:butt">
            <path
               fill="#646364"
               d="m 613.3,219.5 c 0,0.1 0,0.1 -0.1,0.3 -0.4,0.5 -0.9,1.4 -1.9,2 -0.9,0.5 -2.2,0.8 -3.9,-1 -0.1,-0.1 -0.3,-0.4 -0.3,-0.6 0,-0.3 -0.1,-0.6 -0.1,-0.9 v -0.9 c 0,-0.6 0.1,-1.2 0.2,-1.8 0.1,-0.6 0.4,-1.2 0.6,-1.8 0.3,-0.6 0.6,-1.1 0.9,-1.6 1.5,-2 3.5,-3.3 5.4,-4.1 1.9,-0.8 3.8,-1.2 5.6,-1.5 1.9,-0.3 3.7,-0.4 5.5,-0.3 3.6,0.1 7.2,0.6 10.7,1.5 1.8,0.5 3.5,1.1 5.3,2 0.9,0.5 1.7,1 2.6,1.7 l 0.6,0.5 c 0.2,0.2 0.4,0.4 0.6,0.6 l 0.8,0.9 c 2.5,2.6 4.7,5.6 6.4,8.7 v 0 c 1.3,2.4 2.4,5 3.3,7.5 0.7,1.9 1.3,3.7 1.9,5.7 0,0 0,0.2 0.1,0.4 0.1,0.3 0.1,0.7 0.2,1.2 0.1,1 0.4,2.5 0.5,4.1 0.3,3.2 0.5,7.2 0.9,10.4 0.2,1.4 0.4,2.5 0.5,3.4 0.2,0.9 0.3,1.6 0.4,2.1 0.1,1.1 -0.1,1.5 -0.5,1.4 -0.4,-0.1 -1,-0.8 -1.7,-1.9 -0.4,-0.5 -0.7,-1.2 -1.1,-1.9 -0.3,-0.7 -0.7,-1.5 -1,-2.4 0,0.2 -0.3,-0.7 -0.8,-2.3 -0.4,-1.5 -1,-3.6 -1.5,-5.7 -0.5,-2.1 -1,-4.1 -1.5,-5.6 -0.2,-0.8 -0.4,-1.4 -0.6,-1.8 -0.1,-0.4 -0.2,-0.6 -0.2,-0.6 l -0.3,-1.1 -0.4,-1.1 c -0.3,-0.8 -0.5,-1.5 -0.8,-2.3 -0.8,-2.4 -1.8,-4.5 -2.9,-6.6 v 0 c -1.5,-2.7 -3.2,-5.2 -5.4,-7.4 l -0.4,-0.4 -0.4,-0.4 -0.1,-0.1 -0.2,-0.3 -0.3,-0.3 c -0.4,-0.4 -1,-0.7 -1.6,-1 -1.2,-0.6 -2.6,-1.1 -4.1,-1.6 -2.9,-0.8 -6,-1.3 -9.1,-1.3 -3,-0.1 -6.1,0.3 -8.6,1.3 -1.2,0.5 -2.2,1.2 -2.8,2 -0.3,0.9 -0.5,1.7 -0.4,2.9 z"
               id="path5344"
               style="fill:url(#linearGradient90924);fill-opacity:1;fill-rule:evenodd;stroke:#000000;stroke-opacity:1;stroke-width:0.04986636;stroke-miterlimit:4;stroke-dasharray:none;paint-order:normal;stroke-linejoin:round;stroke-linecap:butt" />
          </g>
        </g>
      </g>
      <g
         id="g5358"
         style="fill:url(#linearGradient90924);fill-opacity:1;fill-rule:evenodd;stroke:#000000;stroke-opacity:1;stroke-width:0.04986636;stroke-miterlimit:4;stroke-dasharray:none;paint-order:normal;stroke-linejoin:round;stroke-linecap:butt">
        <g
           id="g5356"
           style="fill:url(#linearGradient90924);fill-opacity:1;fill-rule:evenodd;stroke:#000000;stroke-opacity:1;stroke-width:0.04986636;stroke-miterlimit:4;stroke-dasharray:none;paint-order:normal;stroke-linejoin:round;stroke-linecap:butt">
          <g
             id="g5354"
             style="fill:url(#linearGradient90924);fill-opacity:1;fill-rule:evenodd;stroke:#000000;stroke-opacity:1;stroke-width:0.04986636;stroke-miterlimit:4;stroke-dasharray:none;paint-order:normal;stroke-linejoin:round;stroke-linecap:butt">
            <path
               fill="#646364"
               d="m 658.9,235.2 c -0.1,0.1 -0.1,0.1 -0.3,0.2 -0.6,0.2 -1.7,0.4 -2.7,0.2 -1,-0.3 -2.1,-0.9 -2.1,-3.4 0,-0.1 0,-0.5 0.1,-0.6 2.6,-3.4 6.3,-5.7 10,-6.8 3.4,-1 6.8,-1.3 10.3,-1 3.4,0.3 6.8,1.2 10,3 3.2,1.8 5.8,4.4 7.6,7.4 1.8,3 2.9,6.3 3.6,9.6 0.7,3.3 0.8,6.6 0.7,9.8 0,1.6 -0.2,3.2 -0.4,4.8 -0.1,1.4 -0.2,2.7 -0.1,4 0.1,2.6 0.9,4.9 2.3,7.3 1.4,2.3 3.3,4.7 5.2,7.2 0.9,1.2 1.9,2.5 2.9,4.2 0.9,1.7 1.4,3.5 1.7,5.4 0.3,1.9 0.1,3.8 -0.2,5.5 -0.3,1.7 -0.8,3.4 -1.4,4.9 -0.6,1.5 -1.3,3 -1.9,4.4 l -2,4.1 c -1.3,2.8 -2.9,5.6 -4.6,8.3 -3.4,5.3 -7.2,10.4 -11.6,15 l -1.5,1.6 c -0.4,0.4 -0.7,0.7 -1.1,1.1 -0.8,0.7 -1.5,1.5 -2.3,2.2 0,0 -0.5,0.4 -1.3,1 -0.8,0.6 -2,1.5 -3.4,2.4 -2.8,1.8 -6.4,3.9 -9.7,5.1 -1.4,0.6 -2.6,0.9 -3.6,1.2 -0.1,0 -0.3,0.1 -0.4,0.1 -0.3,-0.1 -0.5,-0.1 -0.7,-0.2 -0.2,-0.1 -0.5,-0.3 -0.6,-0.5 -0.2,-0.2 -0.3,-0.4 -0.3,-0.6 -0.1,-0.2 -0.1,-0.3 -0.1,-0.5 0,-0.6 0.1,-0.9 0.2,-1.2 0.2,-0.5 0.4,-0.7 0.6,-0.6 0.2,0.1 0.4,0.4 0.6,0.9 0.1,0.2 0.2,0.5 0.4,0.5 0,0 0.1,0 0,0 -0.1,0.1 -0.1,0 -0.1,0.1 0,0 -0.2,0.2 -0.1,0.1 0,0 0,-0.1 0,-0.1 v 0 l 0.1,-0.1 c 0,-0.1 0,-0.1 0,-0.2 0,0 0,0 0,0 0,0 0,0 0,0 -0.2,0 -0.4,0.1 -0.6,0.1 0.9,-0.7 2,-1.4 3.1,-2.2 -0.2,0.1 0.6,-0.5 1.8,-1.3 1.2,-0.9 2.8,-2.1 4.4,-3.4 0.4,-0.3 0.8,-0.7 1.2,-1 0.4,-0.3 0.7,-0.7 1.1,-1 0.7,-0.7 1.4,-1.3 1.9,-1.8 1.1,-1.1 1.8,-1.9 1.8,-1.9 l 2.1,-2 c 0.4,-0.3 0.7,-0.7 1,-1 l 0.9,-0.9 c 0.5,-0.5 1,-1 1.5,-1.6 3.9,-4.3 7.4,-9 10.3,-14 1.5,-2.5 2.8,-5 4.1,-7.7 1.4,-2.8 2.6,-5.3 3.5,-7.9 0.8,-2.5 1.2,-5 0.6,-7.2 -0.3,-1.1 -0.7,-2.2 -1.3,-3.1 -0.7,-1.1 -1.6,-2.3 -2.5,-3.4 -1.8,-2.4 -3.8,-4.8 -5.4,-7.8 -0.8,-1.5 -1.5,-3.2 -1.9,-4.9 -0.5,-1.7 -0.6,-3.5 -0.7,-5.2 0,-0.8 0,-1.7 0.1,-2.5 l 0.1,-1.2 0.1,-1.1 c 0.2,-1.4 0.2,-2.8 0.3,-4.2 0,-2.8 -0.2,-5.6 -0.7,-8.3 -1.1,-5.3 -3.9,-10 -8.3,-12.3 -4.4,-2.3 -10.2,-2.8 -15.1,-1.3 -3.2,0.6 -5.6,2.2 -7.2,4.3 z"
               id="path5352"
               style="fill:url(#linearGradient90924);fill-opacity:1;fill-rule:evenodd;stroke:#000000;stroke-opacity:1;stroke-width:0.04986636;stroke-miterlimit:4;stroke-dasharray:none;paint-order:normal;stroke-linejoin:round;stroke-linecap:butt" />
          </g>
        </g>
      </g>
      <g
         id="g5366"
         style="fill:url(#linearGradient90924);fill-opacity:1;fill-rule:evenodd;stroke:#000000;stroke-opacity:1;stroke-width:0.04986636;stroke-miterlimit:4;stroke-dasharray:none;paint-order:normal;stroke-linejoin:round;stroke-linecap:butt">
        <g
           id="g5364"
           style="fill:url(#linearGradient90924);fill-opacity:1;fill-rule:evenodd;stroke:#000000;stroke-opacity:1;stroke-width:0.04986636;stroke-miterlimit:4;stroke-dasharray:none;paint-order:normal;stroke-linejoin:round;stroke-linecap:butt">
          <g
             id="g5362"
             style="fill:url(#linearGradient90924);fill-opacity:1;fill-rule:evenodd;stroke:#000000;stroke-opacity:1;stroke-width:0.04986636;stroke-miterlimit:4;stroke-dasharray:none;paint-order:normal;stroke-linejoin:round;stroke-linecap:butt">
            <path
               fill="#646364"
               d="m 573.4,184.8 c -0.1,0.2 -0.1,0.2 -0.3,0.4 -0.7,0.6 -1.7,1.1 -2.8,0.9 -1,-0.1 -2,-1 -2.7,-2.8 0,-0.1 -0.1,-0.4 -0.1,-0.5 1.1,-3 1.9,-6.4 3.2,-9.9 1,-2.6 2.4,-5.3 4.7,-7.5 l 0.9,-0.8 c 0.3,-0.2 0.7,-0.5 1,-0.7 0.3,-0.2 0.7,-0.5 1,-0.7 l 1.1,-0.5 c 0.7,-0.4 1.5,-0.6 2.2,-0.8 0.4,-0.1 0.8,-0.3 1.1,-0.3 l 1.1,-0.2 1.3,-0.2 c 0.3,0 0.5,0 0.8,0 l 0.6,0.1 1.2,0.1 1.1,0.3 c 0.4,0.1 0.8,0.2 1.1,0.3 l 1,0.4 1,0.4 1,0.4 c 2.5,1.2 4.7,2.5 6.9,3.7 l 0.8,0.4 0.5,0.3 c 0.3,0.1 0.6,0.4 0.8,0.6 l 1.4,1.1 c 0.5,0.4 1,0.7 1.4,1 0.5,0.3 1,0.7 1.5,1 2,1.3 4,2.1 6.1,2.6 1,0.3 2.2,0.4 3.3,0.6 1.1,0 2.3,0.1 3.4,0 1.1,0 2.2,-0.2 3.3,-0.4 1.2,-0.3 2.3,-0.5 3.5,-0.9 2.4,-0.6 4.8,-1.5 7.7,-1.9 0.4,-0.1 0.7,-0.1 1.1,-0.2 l 1.1,-0.1 c 0.7,0 1.5,-0.1 2.3,-0.1 1.6,0.1 3.1,0.4 4.5,0.9 2.9,1 5.4,2.6 7.5,4.3 2.1,1.8 4,3.7 5.8,5.8 1.7,1.9 3.4,4.4 4.7,6.7 1.3,2.4 2.4,4.8 3.4,7.3 l 0.7,2 c 0.2,0.5 0.3,1 0.5,1.5 0.3,1 0.6,2 0.8,3.1 0,0 0.1,0.6 0.3,1.7 0.1,0.5 0.1,1.1 0.2,1.9 0.1,0.7 0.2,1.5 0.2,2.3 0.2,3.4 -0.1,7.7 -1,11 -0.2,0.7 -0.4,1.4 -0.6,2 -0.2,0.6 -0.4,1.1 -0.6,1.5 -0.4,0.9 -0.8,1.6 -1.1,2 -0.6,0.9 -1,1 -1.2,0.6 -0.2,-0.4 -0.2,-1.3 0,-2.5 0,-0.6 0.1,-1.3 0.1,-2 0.1,-0.7 0,-1.5 0.1,-2.3 -0.1,0.3 0.1,-3.6 -0.5,-7.6 -0.1,-1 -0.4,-2 -0.5,-2.9 -0.2,-0.9 -0.4,-1.8 -0.6,-2.5 -0.4,-1.5 -0.7,-2.5 -0.7,-2.5 -0.2,-0.9 -0.5,-1.8 -0.8,-2.7 l -0.5,-1.3 -0.4,-1.1 -0.7,-1.6 c -0.9,-2.2 -1.9,-4.3 -3.1,-6.2 l -0.4,-0.7 -0.5,-0.7 c -0.3,-0.5 -0.6,-0.9 -1,-1.4 -0.7,-0.9 -1.5,-1.8 -2.3,-2.7 -3.1,-3.5 -6.7,-6.5 -10.6,-7.5 -0.5,-0.1 -0.9,-0.2 -1.4,-0.3 -0.5,0 -0.9,-0.1 -1.5,0 -0.5,0 -1,0.1 -1.5,0.1 l -1.6,0.3 c -2.2,0.5 -4.6,1.2 -7.1,1.9 -2.6,0.6 -5.2,1.2 -8.1,1.3 -2.8,0 -5.6,-0.2 -8.3,-1 -2.7,-0.8 -5.3,-2.1 -7.6,-3.5 -1.1,-0.8 -2.2,-1.5 -3.3,-2.3 l -0.8,-0.6 -0.3,-0.3 c 0,0 0,0 0.1,0 l -1.7,-0.9 c -2.3,-1.2 -4.3,-2.5 -6.4,-3.4 -0.5,-0.3 -1,-0.4 -1.5,-0.6 -0.5,-0.2 -1,-0.3 -1.4,-0.4 -0.5,-0.2 -0.9,-0.1 -1.4,-0.2 -0.2,0 -0.3,0 -0.4,0 l -0.7,0.1 c -2,0.3 -3.6,1.1 -4.9,2.4 -1.3,1.3 -2.3,3.1 -3.2,5.3 -1.3,2.8 -2.1,6.1 -3.3,9.6 z"
               id="path5360"
               style="fill:url(#linearGradient90924);fill-opacity:1;fill-rule:evenodd;stroke:#000000;stroke-opacity:1;stroke-width:0.04986636;stroke-miterlimit:4;stroke-dasharray:none;paint-order:normal;stroke-linejoin:round;stroke-linecap:butt" />
          </g>
        </g>
      </g>
      <g
         id="g5374"
         style="fill:url(#linearGradient90924);fill-opacity:1;fill-rule:evenodd;stroke:#000000;stroke-opacity:1;stroke-width:0.04986636;stroke-miterlimit:4;stroke-dasharray:none;paint-order:normal;stroke-linejoin:round;stroke-linecap:butt">
        <g
           id="g5372"
           style="fill:url(#linearGradient90924);fill-opacity:1;fill-rule:evenodd;stroke:#000000;stroke-opacity:1;stroke-width:0.04986636;stroke-miterlimit:4;stroke-dasharray:none;paint-order:normal;stroke-linejoin:round;stroke-linecap:butt">
          <g
             id="g5370"
             style="fill:url(#linearGradient90924);fill-opacity:1;fill-rule:evenodd;stroke:#000000;stroke-opacity:1;stroke-width:0.04986636;stroke-miterlimit:4;stroke-dasharray:none;paint-order:normal;stroke-linejoin:round;stroke-linecap:butt">
            <path
               fill="#646364"
               d="m 517.4,202.9 c 0,0.1 0,0.2 -0.2,0.4 -0.9,1.3 -3.2,3.4 -5.8,0 0,-0.1 -0.2,-0.4 -0.2,-0.5 0,-1.8 0.2,-3.6 0.4,-5.5 0.1,-0.5 0.1,-0.9 0.2,-1.4 0.1,-0.5 0.2,-1 0.3,-1.4 l 0.2,-0.7 c 0.1,-0.3 0.2,-0.7 0.4,-1 l 0.7,-1.3 c 2.8,-4.8 6.7,-8.7 10.9,-12 4.2,-3.3 8.9,-6 14.1,-7.7 1,-0.4 2,-0.6 3,-0.9 1,-0.2 2,-0.5 2.9,-0.6 0,0 0.2,0 0.4,-0.1 0.3,0 0.7,-0.1 1.2,-0.1 0.5,0 1.1,-0.1 1.8,-0.2 0.7,0 1.5,-0.1 2.3,-0.1 0.8,0 1.7,0 2.7,0 0.9,0.1 1.9,0.1 2.9,0.3 1,0.2 1.9,0.3 2.9,0.5 0.5,0.1 1,0.3 1.4,0.4 0.2,0 0.3,0.1 0.4,0.1 l 0.4,0.3 0.2,0.1 0.1,0.1 0.3,0.2 c 2.3,1.5 3.8,2.3 4.7,2.7 0.9,0.4 1.3,0.7 1,1 -0.2,0.1 -0.5,0.3 -0.9,0.4 -0.5,0.1 -1.1,0.1 -1.8,0.1 -1.4,-0.1 -3.1,-0.6 -4.7,-1.2 0,0 0,0 -0.1,0 0,0 -0.1,0 -0.2,-0.1 0,0 -0.1,0 -0.1,0 -0.1,0 -0.2,0 -0.3,0 -0.3,0 -0.6,0 -0.9,-0.1 -1.4,-0.1 -3.4,0 -5.4,0.2 -2,0.3 -4,0.6 -5.5,1 -0.8,0.2 -1.4,0.3 -1.8,0.5 -0.4,0.1 -0.7,0.2 -0.7,0.2 -0.8,0.2 -1.5,0.3 -2.3,0.5 -0.7,0.2 -1.4,0.4 -2.1,0.6 -4.3,1.5 -8.5,3.9 -12.3,6.8 -3.7,2.9 -7,6.3 -9.3,10.2 l -0.5,0.9 c 0,0.1 0,0.1 -0.1,0.1 l -0.1,0.5 c -0.1,0.3 -0.2,0.7 -0.2,1.1 -0.1,0.4 -0.1,0.7 -0.2,1.1 0.1,1.4 0,3 -0.1,4.6 z"
               id="path5368"
               style="fill:url(#linearGradient90924);fill-opacity:1;fill-rule:evenodd;stroke:#000000;stroke-opacity:1;stroke-width:0.04986636;stroke-miterlimit:4;stroke-dasharray:none;paint-order:normal;stroke-linejoin:round;stroke-linecap:butt" />
          </g>
        </g>
      </g>
      <g
         id="g5382"
         style="fill:url(#linearGradient90924);fill-opacity:1;fill-rule:evenodd;stroke:#000000;stroke-opacity:1;stroke-width:0.04986636;stroke-miterlimit:4;stroke-dasharray:none;paint-order:normal;stroke-linejoin:round;stroke-linecap:butt">
        <g
           id="g5380"
           style="fill:url(#linearGradient90924);fill-opacity:1;fill-rule:evenodd;stroke:#000000;stroke-opacity:1;stroke-width:0.04986636;stroke-miterlimit:4;stroke-dasharray:none;paint-order:normal;stroke-linejoin:round;stroke-linecap:butt">
          <g
             id="g5378"
             style="fill:url(#linearGradient90924);fill-opacity:1;fill-rule:evenodd;stroke:#000000;stroke-opacity:1;stroke-width:0.04986636;stroke-miterlimit:4;stroke-dasharray:none;paint-order:normal;stroke-linejoin:round;stroke-linecap:butt">
            <path
               fill="#646364"
               d="m 489.1,272.8 c 0.1,0 0.1,0 0.2,0.2 0.1,0.2 0.3,0.6 0.4,1 0.2,0.4 0.4,0.9 0.5,1.4 0.1,0.5 0.1,1.1 -0.2,1.7 -0.3,0.6 -1,1.2 -2.3,1.6 -0.1,0 -0.5,0.1 -0.7,0 -2.3,-0.9 -3.9,-2.3 -5.3,-3.6 -1.4,-1.4 -2.5,-2.7 -3.6,-4 -0.4,-0.5 -0.8,-1 -1.2,-1.4 -0.2,-0.2 -0.4,-0.4 -0.6,-0.6 l -0.3,-0.3 c -0.1,-0.1 -0.3,-0.2 -0.3,-0.4 l -0.4,-0.6 c -0.7,-1.1 -1.4,-2.3 -2.1,-3.5 -1.3,-2.3 -2.6,-4.8 -3.6,-7.3 -2.2,-5 -3.7,-10.4 -4.2,-16.1 l -0.1,-2.1 c 0,-0.7 0,-1.4 0,-2.1 0,-0.7 0.1,-1.4 0.1,-2.2 0,-0.7 0.2,-1.5 0.3,-2.3 0.6,-3 1.8,-5.7 3.2,-8.2 2.9,-5 6.9,-9 11.2,-12.4 1.6,-1.2 3.3,-2.4 5,-3.4 0,0 0.6,-0.3 1.5,-0.8 0.9,-0.5 2.3,-1.1 3.9,-1.7 3.1,-1.2 7.3,-2.3 10.7,-2.6 2.9,-0.3 4.9,-0.1 5.9,0.2 1.1,0.3 1.3,0.6 1.1,0.9 -0.6,0.6 -3.3,1.1 -6.5,2.3 0.2,0 -0.7,0.3 -2.1,0.8 -1.4,0.5 -3.2,1.3 -5,2.2 -3.6,1.8 -7,4.3 -7,4.3 -0.8,0.5 -1.6,1 -2.3,1.6 -0.8,0.6 -1.4,1 -2.6,2 -2.1,1.7 -4,3.7 -5.7,5.7 -1.7,2.1 -3.1,4.3 -4.1,6.7 -0.5,1.2 -0.9,2.4 -1.2,3.6 -0.1,0.6 -0.2,1.1 -0.3,1.8 0,0.6 -0.1,1.3 -0.1,1.9 -0.1,5.3 1.1,10.7 3.1,15.8 1,2.6 2.2,5.1 3.6,7.5 0.7,1.2 1.4,2.4 2.1,3.6 l 0.3,0.5 0.1,0.1 c 0,0 0,0 0,0 0,0 0,0 0,0 l 0.2,0.2 0.4,0.4 c 0.5,0.6 1,1.2 1.5,1.7 1.1,1.3 2.2,2.6 3.3,3.6 1.2,1.1 2.3,2 3.2,2.3 z"
               id="path5376"
               style="fill:url(#linearGradient90924);fill-opacity:1;fill-rule:evenodd;stroke:#000000;stroke-opacity:1;stroke-width:0.04986636;stroke-miterlimit:4;stroke-dasharray:none;paint-order:normal;stroke-linejoin:round;stroke-linecap:butt" />
          </g>
        </g>
      </g>
      <g
         id="g5390"
         style="fill:url(#linearGradient90924);fill-opacity:1;fill-rule:evenodd;stroke:#000000;stroke-opacity:1;stroke-width:0.04986636;stroke-miterlimit:4;stroke-dasharray:none;paint-order:normal;stroke-linejoin:round;stroke-linecap:butt">
        <g
           id="g5388"
           style="fill:url(#linearGradient90924);fill-opacity:1;fill-rule:evenodd;stroke:#000000;stroke-opacity:1;stroke-width:0.04986636;stroke-miterlimit:4;stroke-dasharray:none;paint-order:normal;stroke-linejoin:round;stroke-linecap:butt">
          <g
             id="g5386"
             style="fill:url(#linearGradient90924);fill-opacity:1;fill-rule:evenodd;stroke:#000000;stroke-opacity:1;stroke-width:0.04986636;stroke-miterlimit:4;stroke-dasharray:none;paint-order:normal;stroke-linejoin:round;stroke-linecap:butt">
            <path
               fill="#646364"
               d="m 470.5,263.5 c 0.2,0 0.3,0 0.6,0.1 0.5,0.2 1.1,0.4 1.5,0.8 0.4,0.4 0.7,0.9 0.7,1.4 0.1,1.1 -0.8,2.1 -1.5,3.5 0,0.1 -0.1,0.2 -0.2,0.3 -0.8,0.1 -1.9,0.8 -2.9,1.7 -1,0.9 -1.9,2.1 -2.8,3.4 -1,1.5 -1.8,3.2 -2.4,4.8 -0.1,0.4 -0.3,0.8 -0.4,1.2 -0.1,0.4 -0.2,0.9 -0.3,1.3 -0.1,0.4 -0.2,0.8 -0.2,1.2 l -0.1,1.2 c 0,3.1 1.6,6.4 3.5,10 0.9,1.8 1.9,3.8 2.7,5.9 0.2,0.5 0.4,1.1 0.6,1.6 l 0.4,1.7 c 0.1,0.6 0.2,1.2 0.3,1.7 l 0.3,1.6 c 0.2,2.5 -0.1,4.9 -0.4,7 -0.4,2.1 -0.8,3.9 -1,5.9 v 0 c -0.4,3 -0.2,5.6 0.9,8.3 0.6,1.6 1.4,3.1 2.3,4.6 0,0 0.2,0.5 0.7,1.3 0.4,0.8 1.1,1.9 2,3.1 1.7,2.4 4.2,5.2 6.8,6.7 2.2,1.3 3.9,1.5 4.9,1.8 1,0.2 1.4,0.4 1.2,0.7 -0.2,0.3 -1.1,0.9 -2.5,1.1 -1.4,0.2 -3.3,0.1 -5.2,-0.5 0.2,0.1 -0.9,-0.2 -2.4,-1 -1.5,-0.8 -3.4,-2.1 -5.2,-3.7 -1.7,-1.5 -3.3,-3.3 -4.4,-4.7 -1.1,-1.4 -1.7,-2.4 -1.7,-2.4 -0.9,-1.5 -1.7,-3.2 -2.4,-4.9 -0.7,-1.7 -1.2,-3.8 -1.3,-5.6 -0.2,-1.9 -0.1,-3.9 0.1,-5.7 v 0 c 0.5,-4.4 1.8,-8.3 1.4,-11.4 l -0.1,-0.6 -0.1,-0.5 -0.1,-0.3 c -0.1,-0.4 -0.1,-0.8 -0.2,-1.3 l -0.3,-1.3 -0.4,-1.3 c -0.6,-1.7 -1.5,-3.4 -2.4,-5.2 -0.9,-1.8 -1.9,-3.7 -2.8,-5.8 -0.8,-2.1 -1.4,-4.5 -1.5,-7 0.2,-5.1 1.9,-9.3 4.3,-13.1 1,-1.6 2.2,-3.2 3.8,-4.6 1.8,-1.1 3.7,-2.5 6.2,-3 z"
               id="path5384"
               style="fill:url(#linearGradient90924);fill-opacity:1;fill-rule:evenodd;stroke:#000000;stroke-opacity:1;stroke-width:0.04986636;stroke-miterlimit:4;stroke-dasharray:none;paint-order:normal;stroke-linejoin:round;stroke-linecap:butt" />
          </g>
        </g>
      </g>
      <g
         id="g5398"
         style="fill:url(#linearGradient90924);fill-opacity:1;fill-rule:evenodd;stroke:#000000;stroke-opacity:1;stroke-width:0.04986636;stroke-miterlimit:4;stroke-dasharray:none;paint-order:normal;stroke-linejoin:round;stroke-linecap:butt">
        <g
           id="g5396"
           style="fill:url(#linearGradient90924);fill-opacity:1;fill-rule:evenodd;stroke:#000000;stroke-opacity:1;stroke-width:0.04986636;stroke-miterlimit:4;stroke-dasharray:none;paint-order:normal;stroke-linejoin:round;stroke-linecap:butt">
          <g
             id="g5394"
             style="fill:url(#linearGradient90924);fill-opacity:1;fill-rule:evenodd;stroke:#000000;stroke-opacity:1;stroke-width:0.04986636;stroke-miterlimit:4;stroke-dasharray:none;paint-order:normal;stroke-linejoin:round;stroke-linecap:butt">
            <path
               fill="#646364"
               d="m 664.4,347 c -0.1,0.1 -0.2,0.1 -0.4,0 -0.8,-0.2 -1.9,-0.6 -2.4,-1.5 -0.6,-0.9 -0.6,-2.2 0.4,-4 0,-0.1 0.2,-0.3 0.4,-0.4 3.1,-1.1 6.2,-2.5 9.3,-3.9 4.1,-1.8 8.3,-3.7 12.9,-5 1.2,-0.3 2.3,-0.7 3.5,-0.8 l 1.8,-0.3 0.9,-0.1 0.4,-0.1 h 0.5 c 2.8,-0.2 5.3,0.2 7.7,0.9 4.8,1.4 9.1,3.8 12.8,7 1.9,1.6 3.6,3.5 5,5.6 0.7,1.1 1.3,2.3 1.8,3.5 0.5,1.3 0.8,2.6 1,4 0.1,1.4 0.1,2.8 -0.2,4.3 -0.1,0.7 -0.3,1.3 -0.5,1.9 -0.2,0.6 -0.4,1.3 -0.7,1.9 -0.5,1.3 -1.4,2.6 -2.7,3.8 -1.3,1.2 -3.1,1.9 -4.7,2.1 -1.6,0.2 -3.1,-0.1 -4.4,-0.4 -1.3,-0.4 -2.5,-0.8 -3.6,-1.3 -2.2,-1 -4.3,-2.2 -6.2,-3.4 -1.9,-1.2 -3.8,-2.3 -5.6,-3.3 -0.9,-0.5 -1.8,-0.9 -2.5,-1.1 h -0.2 l -0.5,-0.1 -0.8,-0.2 -1.6,-0.4 -3.3,-0.8 -2.9,-0.7 c 0,0 -0.9,-0.3 -2.3,-0.7 -1.4,-0.4 -3.3,-0.9 -5.4,-1.4 v 0 c -2.4,-0.5 -5.1,-1 -7.4,-1.1 -0.7,0 -1.3,0 -1.9,0 -0.6,0 -1.1,0 -1.5,0 -0.5,0 -0.9,0 -1.2,0 -0.4,0 -0.7,0 -0.9,0 -1.1,0 -1.5,-0.2 -1.3,-0.6 0.2,-0.4 0.9,-1 2.1,-1.5 1.2,-0.6 2.8,-1.1 4.7,-1.4 -0.4,-0.1 3.8,-0.7 8.1,-0.4 v 0 c 2.3,0.1 4.6,0.4 6.4,0.7 1.8,0.2 2.9,0.5 2.9,0.5 l 2.9,0.7 4.1,1 0.8,0.2 h 0.2 v 0 c -0.5,-0.1 -0.1,0 -0.2,0 h 0.1 0.1 l 0.6,0.1 c 0.7,0.2 1.4,0.4 2,0.7 1.2,0.5 2.2,1.1 3.2,1.7 2,1.1 3.8,2.3 5.7,3.4 1.8,1.1 3.6,2.1 5.4,2.8 1.7,0.7 3.5,1 4.3,0.7 1.5,-0.1 3.4,-4.8 2.7,-7.7 -0.6,-3.2 -3.1,-6.4 -6.1,-8.9 -3,-2.5 -6.7,-4.4 -10.4,-5.4 -1.9,-0.5 -3.7,-0.7 -5.3,-0.6 l -3,0.5 -0.7,0.1 -0.7,0.2 -1.5,0.4 c -3.9,1.1 -7.8,2.8 -11.8,4.6 -3.3,1.5 -6.5,3 -9.9,4.2 z"
               id="path5392"
               style="fill:url(#linearGradient90924);fill-opacity:1;fill-rule:evenodd;stroke:#000000;stroke-opacity:1;stroke-width:0.04986636;stroke-miterlimit:4;stroke-dasharray:none;paint-order:normal;stroke-linejoin:round;stroke-linecap:butt" />
          </g>
        </g>
      </g>
      <g
         id="g5406"
         style="fill:url(#linearGradient90924);fill-opacity:1;fill-rule:evenodd;stroke:#000000;stroke-opacity:1;stroke-width:0.04986636;stroke-miterlimit:4;stroke-dasharray:none;paint-order:normal;stroke-linejoin:round;stroke-linecap:butt">
        <g
           id="g5404"
           style="fill:url(#linearGradient90924);fill-opacity:1;fill-rule:evenodd;stroke:#000000;stroke-opacity:1;stroke-width:0.04986636;stroke-miterlimit:4;stroke-dasharray:none;paint-order:normal;stroke-linejoin:round;stroke-linecap:butt">
          <g
             id="g5402"
             style="fill:url(#linearGradient90924);fill-opacity:1;fill-rule:evenodd;stroke:#000000;stroke-opacity:1;stroke-width:0.04986636;stroke-miterlimit:4;stroke-dasharray:none;paint-order:normal;stroke-linejoin:round;stroke-linecap:butt">
            <path
               fill="#646364"
               d="m 611.7,377.8 c 0,0 0,0 0.1,0.1 0.1,0.2 0.4,0.4 0.7,0.6 0.3,0.2 0.8,0.4 1.2,0.7 0.4,0.3 0.9,0.7 1.1,1.3 0.2,0.6 0.2,1.6 -0.9,2.8 -0.1,0.1 -0.5,0.4 -0.8,0.5 -0.7,0.2 -1.4,0.2 -1.9,0.2 -0.1,0 0,0 -0.1,0 l -0.4,0.1 -2.3,0.7 c -0.7,0.3 -1.4,0.6 -2.2,0.9 l -1.1,0.5 -1,0.6 c -4.1,2.2 -7.7,5.3 -10.7,8.9 -0.4,0.5 -0.7,1 -1.1,1.4 l -0.5,0.7 -0.2,0.3 c -0.1,0.1 0,0.1 -0.1,0.2 -0.5,0.9 -0.9,2 -1.3,3 -0.7,2.2 -1.2,4.5 -1.6,6.9 -0.7,4.7 -0.8,9.7 0.1,14.3 0.4,2.3 1.1,4.5 2,6.3 1,1.8 2.3,3.2 3.9,3.7 1.5,0.6 3.5,0.5 5.6,-0.1 1.1,-0.3 2,-0.7 2.8,-1.1 0.8,-0.5 1.3,-1 1.6,-1.5 0.7,-1.1 0.7,-3 0.2,-5.2 -0.5,-2.1 -1.4,-4.4 -2.4,-6.6 -1,-2.2 -2.2,-4.5 -3.3,-6.9 -0.5,-1.2 -1.1,-2.4 -1.6,-3.8 -0.2,-0.7 -0.5,-1.4 -0.6,-2.2 -0.2,-0.9 -0.2,-1.6 -0.3,-2.4 v -0.6 c 0,-0.2 0,-0.4 0,-0.5 v -0.4 -0.9 -0.9 l 0.1,-0.9 c 0.1,-1.2 0.4,-2.3 0.6,-3.4 0,0 0,-0.2 0.2,-0.5 0.1,-0.3 0.3,-0.7 0.5,-1.2 0.4,-1 1.2,-2.5 2.2,-4 1.1,-1.4 2.4,-3 4.1,-4.2 1.6,-1.2 3.4,-2.2 5.2,-2.8 0.7,-0.3 1.4,-0.5 2,-0.6 0.3,-0.1 0.6,-0.1 0.9,-0.2 0.3,0 0.5,-0.1 0.8,-0.1 0.5,0 0.9,-0.1 1.3,-0.1 0.4,0 0.7,0 1,0.1 1.1,0.1 1.4,0.4 1.1,0.8 -0.2,0.4 -1,0.7 -2.1,1.2 -1,0.5 -2.4,1.1 -3.7,2.1 0.2,0 -0.6,0.4 -1.6,1.2 -1,0.9 -2.4,2.1 -3.4,3.7 -1,1.5 -1.7,3.3 -2.2,4.6 -0.2,0.7 -0.3,1.2 -0.4,1.6 -0.1,0.4 -0.1,0.6 -0.1,0.6 -0.2,0.8 -0.3,1.7 -0.4,2.5 v 1.3 0.3 c 0,0 0,0 0,0.1 v 0.2 0.4 c 0,0.5 0,1.1 0.1,1.4 0.2,0.9 0.6,1.9 1,3 0.4,1.1 0.9,2.2 1.5,3.3 1.1,2.2 2.2,4.5 3.2,6.9 1,2.4 2,5 2.5,7.9 0.2,1.5 0.3,3.1 0,4.8 -0.3,1.7 -1.1,3.5 -2.3,4.8 -1.2,1.4 -2.7,2.3 -4.1,3 -1.4,0.6 -2.8,1 -4.2,1.4 -0.8,0.1 -1.5,0.3 -2.3,0.3 l -1.2,0.1 c -0.4,0 -0.8,0 -1.2,-0.1 -1.6,-0.1 -3.3,-0.6 -4.8,-1.3 -1.5,-0.8 -2.8,-1.9 -3.8,-3.1 -1,-1.2 -1.9,-2.5 -2.4,-3.8 -1.3,-2.7 -2,-5.4 -2.4,-8.1 -0.8,-5.4 -0.6,-10.7 0.1,-15.9 0.4,-2.6 1,-5.2 1.9,-7.9 0.2,-0.7 0.5,-1.3 0.8,-2 0.1,-0.3 0.3,-0.7 0.4,-1 l 0.6,-1.1 1.3,-1.7 c 0.4,-0.5 0.8,-1.1 1.2,-1.6 3.4,-4.2 7.6,-7.8 12.5,-10.3 l 1.2,-0.7 1.3,-0.6 c 0.9,-0.4 1.7,-0.8 2.6,-1.1 l 2.7,-0.8 0.9,-0.3 c 0.3,-0.2 0.8,-0.1 1.2,-0.1 0.4,0.3 0.6,0.3 0.7,0.3 z"
               id="path5400"
               style="fill:url(#linearGradient90924);fill-opacity:1;fill-rule:evenodd;stroke:#000000;stroke-opacity:1;stroke-width:0.04986636;stroke-miterlimit:4;stroke-dasharray:none;paint-order:normal;stroke-linejoin:round;stroke-linecap:butt" />
          </g>
        </g>
      </g>
    </g>
    <text
       xml:space="preserve"
       style="font-size:6.49483px;line-height:1.25;font-family:Algerian;-inkscape-font-specification:Algerian;letter-spacing:1.62371px;stroke-width:0.0396875;stroke:none;stroke-opacity:1;fill:#000000;stroke-miterlimit:4;stroke-dasharray:none;stroke-linejoin:miter;stroke-linecap:butt;fill-opacity:1"
       x="15.806459"
       y="179.59897"
       id="text62298"
       transform="scale(1.3201564,0.757486)"><tspan
         sodipodi:role="line"
         id="tspan62296"
         x="15.806459"
         y="179.59897"
         style="font-style:normal;font-variant:normal;font-weight:normal;font-stretch:normal;font-family:Century;-inkscape-font-specification:Century;stroke-width:0.0396875;stroke:none;stroke-opacity:1;fill:#000000;stroke-miterlimit:4;stroke-dasharray:none;stroke-linejoin:miter;stroke-linecap:butt;fill-opacity:1">FLORISTERA</tspan></text>
    <text
       xml:space="preserve"
       style="font-size:14.558px;line-height:1.25;font-family:Algerian;-inkscape-font-specification:Algerian;letter-spacing:0.926555px;stroke-width:0.0396875;stroke:none;stroke-opacity:1;fill:#000000;stroke-miterlimit:4;stroke-dasharray:none;stroke-linejoin:miter;stroke-linecap:butt;fill-opacity:1"
       x="16.115061"
       y="207.10365"
       id="text71816"
       transform="scale(1.4277817,0.70038719)"><tspan
         sodipodi:role="line"
         id="tspan71814"
         x="16.115061"
         y="207.10365"
         style="font-style:normal;font-variant:normal;font-weight:normal;font-stretch:normal;font-family:Century;-inkscape-font-specification:Century;stroke-width:0.0396875;stroke:none;stroke-opacity:1;fill:#000000;stroke-miterlimit:4;stroke-dasharray:none;stroke-linejoin:miter;stroke-linecap:butt;fill-opacity:1">NUBIA</tspan></text>
  </g>
</svg>
